<svg width="32" height="32" viewBox="0 0 32 32" fill="none" xmlns="http://www.w3.org/2000/svg">
<g clip-path="url(#clip0_935_271592)">
<path d="M27.5556 0H4.44444C1.99111 0 0 1.99111 0 4.44444V27.5556C0 30.0089 1.99111 32 4.44444 32H27.5556C30.0089 32 32 30.0089 32 27.5556V4.44444C32 1.99111 30.0089 0 27.5556 0Z" fill="#DDF3E9"/>
<path d="M28.436 32C28.0626 32 27.7159 31.7686 27.5915 31.4086L26.9159 29.4029C26.1514 27.1486 24.7023 25.2286 22.7199 23.84C20.7464 22.4514 18.4173 21.7143 15.9905 21.7143C11.0122 21.7143 6.62075 24.8 5.07394 29.4029L4.39833 31.4086C4.24721 31.8629 3.74938 32.1029 3.27823 31.9571C2.81597 31.8114 2.55817 31.3229 2.70929 30.8771L3.38491 28.8714C5.18062 23.5657 10.2477 20 15.9993 20C18.8085 20 21.5021 20.8486 23.7778 22.4514C26.0536 24.0457 27.7248 26.2657 28.6138 28.8629L29.2894 30.8771C29.4405 31.3229 29.1827 31.8114 28.7205 31.9571C28.6316 31.9829 28.5338 32 28.4449 32H28.436Z" fill="#0AA16E"/>
<path d="M15.9996 18.1618C12.5685 18.1618 9.77734 15.4496 9.77734 12.1078C9.77734 8.76593 12.5685 6.05371 15.9996 6.05371C19.4307 6.05371 22.2218 8.76593 22.2218 12.1078C22.2218 15.4496 19.4307 18.1618 15.9996 18.1618ZM15.9996 7.66813C13.5462 7.66813 11.5551 9.66193 11.5551 12.1078C11.5551 14.5536 13.5462 16.5474 15.9996 16.5474C18.4529 16.5474 20.444 14.5536 20.444 12.1078C20.444 9.66193 18.4529 7.66813 15.9996 7.66813Z" fill="#0AA16E"/>
</g>
<defs>
<clipPath id="clip0_935_271592">
<rect width="32" height="32" rx="16" fill="white"/>
</clipPath>
</defs>
</svg>
