<svg width="18" height="18" viewBox="0 0 18 18" fill="none" xmlns="http://www.w3.org/2000/svg">
<path d="M7.9781 3.2436C8.30837 3.19353 8.64908 3.16667 9 3.16667C13.1487 3.16667 15.871 6.9207 16.7855 8.40568C16.8962 8.58542 16.9516 8.67528 16.9826 8.81389C17.0058 8.91799 17.0058 9.08222 16.9825 9.18631C16.9515 9.32492 16.8958 9.41538 16.7843 9.59631C16.5407 9.99179 16.1691 10.5476 15.6769 11.1504M4.70801 4.59885C2.95333 5.82085 1.762 7.51687 1.21524 8.4044C1.10405 8.58489 1.04846 8.67514 1.01746 8.81373C0.994187 8.91783 0.994178 9.08203 1.01744 9.18613C1.04842 9.32473 1.10376 9.41459 1.21445 9.59432C2.12903 11.0793 4.85135 14.8333 9 14.8333C10.6701 14.8333 12.1091 14.225 13.292 13.4011M4.70801 4.59885L4.71231 4.59586M4.70801 4.59885L1.68602 1.5M4.70801 4.59885L7.27608 7.23223M13.2977 13.3972C13.2958 13.3985 13.2939 13.3998 13.292 13.4011M13.292 13.4011L10.7239 10.7678M13.292 13.4011L16.314 16.5M7.27608 7.23223L10.7239 10.7678M7.27608 7.23223C6.83489 7.68464 6.56201 8.30964 6.56201 9C6.56201 10.3807 7.65353 11.5 9 11.5C9.67323 11.5 10.2827 11.2202 10.7239 10.7678" stroke="#ADB8CC" stroke-width="1.6" stroke-linecap="round" stroke-linejoin="round"/>
</svg>
