<svg width="474" height="405" viewBox="0 0 474 405" fill="none" xmlns="http://www.w3.org/2000/svg">
<path d="M235.608 25.0197L242.287 32.6017C243.205 33.6605 245.094 34.4055 246.484 34.2726L254.696 33.4832C259.949 32.9811 262.116 36.3407 259.466 40.9378L255.007 48.7354C254.252 50.0559 254.224 52.2198 254.931 53.5747L258.723 60.7321C261.72 66.3986 259.168 69.5852 253.026 67.8498L244.481 65.4268C242.938 64.9884 240.745 65.5759 239.603 66.7339L233.415 73.1045C228.988 77.6719 225.153 76.1703 224.922 69.7892L224.627 61.6945C224.562 60.1679 223.456 58.3077 222.142 57.5417L214.381 53.0184C209.812 50.3555 209.985 46.3688 214.785 44.1776L222.291 40.7552C223.537 40.1817 224.801 38.5917 225.066 37.2161L227.059 27.3104C228.153 21.9322 231.996 20.9023 235.608 25.0197Z" stroke="#FFC000" stroke-width="4" stroke-linecap="round" stroke-linejoin="round"/>
<circle cx="237" cy="187.483" r="65" fill="#39C57E"/>
<path d="M216 190.483L230 204.483L258 174.483" stroke="white" stroke-width="7" stroke-linecap="round" stroke-linejoin="round"/>
<path d="M161.685 325.853C161.685 327.281 161.356 328.517 160.699 329.559C160.064 330.602 159.112 331.407 157.843 331.973C156.596 332.54 155.055 332.823 153.219 332.823C152.312 332.823 151.474 332.767 150.703 332.653C149.932 332.563 149.207 332.415 148.527 332.211C147.87 332.007 147.235 331.758 146.623 331.463V327.383C147.643 327.837 148.742 328.256 149.921 328.641C151.122 329.004 152.29 329.185 153.423 329.185C154.284 329.185 154.987 329.061 155.531 328.811C156.075 328.539 156.472 328.177 156.721 327.723C156.993 327.247 157.129 326.703 157.129 326.091C157.129 325.411 156.959 324.833 156.619 324.357C156.302 323.881 155.803 323.439 155.123 323.031C154.443 322.623 153.559 322.204 152.471 321.773C151.7 321.433 150.964 321.071 150.261 320.685C149.581 320.277 148.98 319.79 148.459 319.223C147.96 318.657 147.564 317.988 147.269 317.217C146.997 316.447 146.861 315.54 146.861 314.497C146.861 313.115 147.19 311.925 147.847 310.927C148.504 309.93 149.422 309.171 150.601 308.649C151.78 308.128 153.151 307.867 154.715 307.867C156.03 307.867 157.231 308.003 158.319 308.275C159.43 308.547 160.472 308.933 161.447 309.431L160.019 312.933C159.09 312.503 158.172 312.163 157.265 311.913C156.381 311.664 155.486 311.539 154.579 311.539C153.876 311.539 153.287 311.664 152.811 311.913C152.335 312.14 151.972 312.469 151.723 312.899C151.496 313.33 151.383 313.829 151.383 314.395C151.383 315.053 151.542 315.608 151.859 316.061C152.176 316.515 152.675 316.945 153.355 317.353C154.035 317.739 154.919 318.192 156.007 318.713C157.208 319.257 158.228 319.835 159.067 320.447C159.928 321.059 160.574 321.796 161.005 322.657C161.458 323.519 161.685 324.584 161.685 325.853ZM172.647 313.715C174.234 313.715 175.594 314.055 176.727 314.735C177.883 315.393 178.778 316.345 179.413 317.591C180.048 318.815 180.365 320.311 180.365 322.079V324.255H169.077C169.122 325.933 169.53 327.236 170.301 328.165C171.094 329.072 172.205 329.525 173.633 329.525C174.766 329.525 175.775 329.412 176.659 329.185C177.543 328.936 178.461 328.585 179.413 328.131V331.565C178.552 331.996 177.656 332.313 176.727 332.517C175.798 332.721 174.653 332.823 173.293 332.823C171.57 332.823 170.04 332.483 168.703 331.803C167.388 331.101 166.357 330.047 165.609 328.641C164.861 327.236 164.487 325.491 164.487 323.405C164.487 321.297 164.827 319.529 165.507 318.101C166.187 316.651 167.139 315.563 168.363 314.837C169.61 314.089 171.038 313.715 172.647 313.715ZM172.715 316.877C171.695 316.877 170.868 317.251 170.233 317.999C169.621 318.725 169.258 319.813 169.145 321.263H176.081C176.081 320.402 175.956 319.643 175.707 318.985C175.458 318.328 175.084 317.818 174.585 317.455C174.109 317.07 173.486 316.877 172.715 316.877ZM199.91 313.715C202.131 313.715 203.831 314.237 205.01 315.279C206.189 316.299 206.778 317.909 206.778 320.107V332.483H203.616L202.732 329.933H202.596C202.097 330.591 201.587 331.146 201.066 331.599C200.545 332.03 199.944 332.336 199.264 332.517C198.584 332.721 197.768 332.823 196.816 332.823C195.796 332.823 194.878 332.619 194.062 332.211C193.246 331.803 192.6 331.18 192.124 330.341C191.648 329.48 191.41 328.403 191.41 327.111C191.41 325.207 192.067 323.779 193.382 322.827C194.697 321.853 196.669 321.32 199.298 321.229L202.256 321.127V320.209C202.256 319.031 202.007 318.192 201.508 317.693C201.009 317.195 200.329 316.945 199.468 316.945C198.652 316.945 197.825 317.081 196.986 317.353C196.17 317.625 195.365 317.943 194.572 318.305L193.178 315.313C194.107 314.837 195.139 314.452 196.272 314.157C197.405 313.863 198.618 313.715 199.91 313.715ZM200.352 323.847C198.743 323.915 197.621 324.244 196.986 324.833C196.351 325.4 196.034 326.171 196.034 327.145C196.034 328.007 196.249 328.63 196.68 329.015C197.133 329.401 197.723 329.593 198.448 329.593C199.513 329.593 200.42 329.242 201.168 328.539C201.916 327.814 202.29 326.749 202.29 325.343V323.779L200.352 323.847ZM217.371 313.715C218.505 313.715 219.491 313.942 220.329 314.395C221.168 314.849 221.871 315.529 222.437 316.435H222.573L222.981 314.055H226.789V332.619C226.789 334.365 226.472 335.827 225.837 337.005C225.203 338.207 224.251 339.113 222.981 339.725C221.735 340.337 220.148 340.643 218.221 340.643C216.929 340.643 215.751 340.553 214.685 340.371C213.643 340.213 212.645 339.929 211.693 339.521V335.985C212.351 336.28 213.019 336.529 213.699 336.733C214.402 336.96 215.127 337.13 215.875 337.243C216.623 337.357 217.417 337.413 218.255 337.413C219.57 337.413 220.567 337.017 221.247 336.223C221.95 335.43 222.301 334.297 222.301 332.823V332.347C222.301 332.007 222.313 331.611 222.335 331.157C222.381 330.704 222.415 330.341 222.437 330.069H222.301C221.757 331.021 221.077 331.724 220.261 332.177C219.445 332.608 218.459 332.823 217.303 332.823C215.241 332.823 213.609 331.985 212.407 330.307C211.229 328.63 210.639 326.295 210.639 323.303C210.639 321.286 210.911 319.563 211.455 318.135C211.999 316.707 212.77 315.619 213.767 314.871C214.787 314.101 215.989 313.715 217.371 313.715ZM218.731 317.217C217.961 317.217 217.315 317.455 216.793 317.931C216.295 318.385 215.909 319.065 215.637 319.971C215.365 320.878 215.229 322.011 215.229 323.371C215.229 325.366 215.524 326.873 216.113 327.893C216.703 328.913 217.587 329.423 218.765 329.423C219.445 329.423 220.023 329.333 220.499 329.151C220.975 328.947 221.361 328.63 221.655 328.199C221.95 327.746 222.177 327.179 222.335 326.499C222.494 325.797 222.573 324.958 222.573 323.983V323.337C222.573 321.864 222.437 320.685 222.165 319.801C221.916 318.895 221.508 318.237 220.941 317.829C220.375 317.421 219.638 317.217 218.731 317.217ZM241.096 313.715C241.414 313.715 241.742 313.727 242.082 313.749C242.422 313.772 242.706 313.817 242.932 313.885L242.524 317.863C242.298 317.818 242.026 317.784 241.708 317.761C241.414 317.716 241.096 317.693 240.756 317.693C240.19 317.693 239.634 317.807 239.09 318.033C238.546 318.237 238.059 318.555 237.628 318.985C237.198 319.393 236.846 319.926 236.574 320.583C236.325 321.241 236.2 322.023 236.2 322.929V332.483H231.678V314.055H235.146L235.758 317.251H235.996C236.336 316.594 236.756 316.005 237.254 315.483C237.776 314.939 238.354 314.509 238.988 314.191C239.646 313.874 240.348 313.715 241.096 313.715ZM252.501 313.715C254.087 313.715 255.447 314.055 256.581 314.735C257.737 315.393 258.632 316.345 259.267 317.591C259.901 318.815 260.219 320.311 260.219 322.079V324.255H248.931C248.976 325.933 249.384 327.236 250.155 328.165C250.948 329.072 252.059 329.525 253.487 329.525C254.62 329.525 255.629 329.412 256.513 329.185C257.397 328.936 258.315 328.585 259.267 328.131V331.565C258.405 331.996 257.51 332.313 256.581 332.517C255.651 332.721 254.507 332.823 253.147 332.823C251.424 332.823 249.894 332.483 248.557 331.803C247.242 331.101 246.211 330.047 245.463 328.641C244.715 327.236 244.341 325.491 244.341 323.405C244.341 321.297 244.681 319.529 245.361 318.101C246.041 316.651 246.993 315.563 248.217 314.837C249.463 314.089 250.891 313.715 252.501 313.715ZM252.569 316.877C251.549 316.877 250.721 317.251 250.087 317.999C249.475 318.725 249.112 319.813 248.999 321.263H255.935C255.935 320.402 255.81 319.643 255.561 318.985C255.311 318.328 254.937 317.818 254.439 317.455C253.963 317.07 253.339 316.877 252.569 316.877ZM269.899 313.715C271.032 313.715 272.018 313.942 272.857 314.395C273.695 314.849 274.398 315.529 274.965 316.435H275.101L275.509 314.055H279.317V332.619C279.317 334.365 278.999 335.827 278.365 337.005C277.73 338.207 276.778 339.113 275.509 339.725C274.262 340.337 272.675 340.643 270.749 340.643C269.457 340.643 268.278 340.553 267.213 340.371C266.17 340.213 265.173 339.929 264.221 339.521V335.985C264.878 336.28 265.547 336.529 266.227 336.733C266.929 336.96 267.655 337.13 268.403 337.243C269.151 337.357 269.944 337.413 270.783 337.413C272.097 337.413 273.095 337.017 273.775 336.223C274.477 335.43 274.829 334.297 274.829 332.823V332.347C274.829 332.007 274.84 331.611 274.863 331.157C274.908 330.704 274.942 330.341 274.965 330.069H274.829C274.285 331.021 273.605 331.724 272.789 332.177C271.973 332.608 270.987 332.823 269.831 332.823C267.768 332.823 266.136 331.985 264.935 330.307C263.756 328.63 263.167 326.295 263.167 323.303C263.167 321.286 263.439 319.563 263.983 318.135C264.527 316.707 265.297 315.619 266.295 314.871C267.315 314.101 268.516 313.715 269.899 313.715ZM271.259 317.217C270.488 317.217 269.842 317.455 269.321 317.931C268.822 318.385 268.437 319.065 268.165 319.971C267.893 320.878 267.757 322.011 267.757 323.371C267.757 325.366 268.051 326.873 268.641 327.893C269.23 328.913 270.114 329.423 271.293 329.423C271.973 329.423 272.551 329.333 273.027 329.151C273.503 328.947 273.888 328.63 274.183 328.199C274.477 327.746 274.704 327.179 274.863 326.499C275.021 325.797 275.101 324.958 275.101 323.983V323.337C275.101 321.864 274.965 320.685 274.693 319.801C274.443 318.895 274.035 318.237 273.469 317.829C272.902 317.421 272.165 317.217 271.259 317.217ZM300.05 323.235C300.05 324.777 299.857 326.137 299.472 327.315C299.086 328.494 298.52 329.503 297.772 330.341C297.046 331.157 296.162 331.781 295.12 332.211C294.077 332.619 292.91 332.823 291.618 332.823C290.416 332.823 289.294 332.619 288.252 332.211C287.232 331.781 286.348 331.157 285.6 330.341C284.874 329.503 284.308 328.494 283.9 327.315C283.492 326.137 283.288 324.777 283.288 323.235C283.288 321.195 283.616 319.473 284.274 318.067C284.954 316.639 285.928 315.563 287.198 314.837C288.467 314.089 289.974 313.715 291.72 313.715C293.352 313.715 294.791 314.089 296.038 314.837C297.284 315.563 298.259 316.639 298.962 318.067C299.687 319.473 300.05 321.195 300.05 323.235ZM287.878 323.235C287.878 324.527 288.014 325.638 288.286 326.567C288.558 327.474 288.966 328.165 289.51 328.641C290.076 329.117 290.802 329.355 291.686 329.355C292.57 329.355 293.284 329.117 293.828 328.641C294.394 328.165 294.802 327.474 295.052 326.567C295.324 325.638 295.46 324.527 295.46 323.235C295.46 321.921 295.324 320.821 295.052 319.937C294.78 319.031 294.36 318.351 293.794 317.897C293.25 317.421 292.536 317.183 291.652 317.183C290.314 317.183 289.351 317.705 288.762 318.747C288.172 319.79 287.878 321.286 287.878 323.235ZM319.674 313.715C321.895 313.715 323.595 314.237 324.774 315.279C325.952 316.299 326.542 317.909 326.542 320.107V332.483H323.38L322.496 329.933H322.36C321.861 330.591 321.351 331.146 320.83 331.599C320.308 332.03 319.708 332.336 319.028 332.517C318.348 332.721 317.532 332.823 316.58 332.823C315.56 332.823 314.642 332.619 313.826 332.211C313.01 331.803 312.364 331.18 311.888 330.341C311.412 329.48 311.174 328.403 311.174 327.111C311.174 325.207 311.831 323.779 313.146 322.827C314.46 321.853 316.432 321.32 319.062 321.229L322.02 321.127V320.209C322.02 319.031 321.77 318.192 321.272 317.693C320.773 317.195 320.093 316.945 319.232 316.945C318.416 316.945 317.588 317.081 316.75 317.353C315.934 317.625 315.129 317.943 314.336 318.305L312.942 315.313C313.871 314.837 314.902 314.452 316.036 314.157C317.169 313.863 318.382 313.715 319.674 313.715ZM320.116 323.847C318.506 323.915 317.384 324.244 316.75 324.833C316.115 325.4 315.798 326.171 315.798 327.145C315.798 328.007 316.013 328.63 316.444 329.015C316.897 329.401 317.486 329.593 318.212 329.593C319.277 329.593 320.184 329.242 320.932 328.539C321.68 327.814 322.054 326.749 322.054 325.343V323.779L320.116 323.847ZM178.094 363.285H174.014V378.483H169.492V363.285H166.84V361.245L169.526 360.021V358.763C169.526 357.177 169.752 355.93 170.206 355.023C170.659 354.117 171.328 353.471 172.212 353.085C173.096 352.677 174.172 352.473 175.442 352.473C176.28 352.473 177.04 352.553 177.72 352.711C178.422 352.847 179.046 353.006 179.59 353.187L178.502 356.383C178.162 356.27 177.776 356.168 177.346 356.077C176.938 355.964 176.507 355.907 176.054 355.907C175.351 355.907 174.83 356.168 174.49 356.689C174.172 357.211 174.014 357.936 174.014 358.865V360.055H178.094V363.285ZM188.206 359.715C190.427 359.715 192.127 360.237 193.306 361.279C194.485 362.299 195.074 363.909 195.074 366.107V378.483H191.912L191.028 375.933H190.892C190.393 376.591 189.883 377.146 189.362 377.599C188.841 378.03 188.24 378.336 187.56 378.517C186.88 378.721 186.064 378.823 185.112 378.823C184.092 378.823 183.174 378.619 182.358 378.211C181.542 377.803 180.896 377.18 180.42 376.341C179.944 375.48 179.706 374.403 179.706 373.111C179.706 371.207 180.363 369.779 181.678 368.827C182.993 367.853 184.965 367.32 187.594 367.229L190.552 367.127V366.209C190.552 365.031 190.303 364.192 189.804 363.693C189.305 363.195 188.625 362.945 187.764 362.945C186.948 362.945 186.121 363.081 185.282 363.353C184.466 363.625 183.661 363.943 182.868 364.305L181.474 361.313C182.403 360.837 183.435 360.452 184.568 360.157C185.701 359.863 186.914 359.715 188.206 359.715ZM188.648 369.847C187.039 369.915 185.917 370.244 185.282 370.833C184.647 371.4 184.33 372.171 184.33 373.145C184.33 374.007 184.545 374.63 184.976 375.015C185.429 375.401 186.019 375.593 186.744 375.593C187.809 375.593 188.716 375.242 189.464 374.539C190.212 373.814 190.586 372.749 190.586 371.343V369.779L188.648 369.847ZM204.035 378.483L197.405 360.055H202.131L205.429 370.697C205.588 371.128 205.713 371.604 205.803 372.125C205.917 372.624 206.019 373.123 206.109 373.621C206.2 374.097 206.245 374.517 206.245 374.879H206.381C206.427 374.494 206.483 374.063 206.551 373.587C206.642 373.089 206.755 372.59 206.891 372.091C207.027 371.593 207.152 371.128 207.265 370.697L210.597 360.055H215.323L208.693 378.483H204.035ZM233.627 369.235C233.627 370.777 233.434 372.137 233.049 373.315C232.664 374.494 232.097 375.503 231.349 376.341C230.624 377.157 229.74 377.781 228.697 378.211C227.654 378.619 226.487 378.823 225.195 378.823C223.994 378.823 222.872 378.619 221.829 378.211C220.809 377.781 219.925 377.157 219.177 376.341C218.452 375.503 217.885 374.494 217.477 373.315C217.069 372.137 216.865 370.777 216.865 369.235C216.865 367.195 217.194 365.473 217.851 364.067C218.531 362.639 219.506 361.563 220.775 360.837C222.044 360.089 223.552 359.715 225.297 359.715C226.929 359.715 228.368 360.089 229.615 360.837C230.862 361.563 231.836 362.639 232.539 364.067C233.264 365.473 233.627 367.195 233.627 369.235ZM221.455 369.235C221.455 370.527 221.591 371.638 221.863 372.567C222.135 373.474 222.543 374.165 223.087 374.641C223.654 375.117 224.379 375.355 225.263 375.355C226.147 375.355 226.861 375.117 227.405 374.641C227.972 374.165 228.38 373.474 228.629 372.567C228.901 371.638 229.037 370.527 229.037 369.235C229.037 367.921 228.901 366.821 228.629 365.937C228.357 365.031 227.938 364.351 227.371 363.897C226.827 363.421 226.113 363.183 225.229 363.183C223.892 363.183 222.928 363.705 222.339 364.747C221.75 365.79 221.455 367.286 221.455 369.235ZM246.99 359.715C247.307 359.715 247.636 359.727 247.976 359.749C248.316 359.772 248.599 359.817 248.826 359.885L248.418 363.863C248.191 363.818 247.919 363.784 247.602 363.761C247.307 363.716 246.99 363.693 246.65 363.693C246.083 363.693 245.528 363.807 244.984 364.033C244.44 364.237 243.953 364.555 243.522 364.985C243.091 365.393 242.74 365.926 242.468 366.583C242.219 367.241 242.094 368.023 242.094 368.929V378.483H237.572V360.055H241.04L241.652 363.251H241.89C242.23 362.594 242.649 362.005 243.148 361.483C243.669 360.939 244.247 360.509 244.882 360.191C245.539 359.874 246.242 359.715 246.99 359.715ZM256.305 360.055V378.483H251.817V360.055H256.305ZM254.095 352.949C254.752 352.949 255.319 353.119 255.795 353.459C256.271 353.777 256.509 354.355 256.509 355.193C256.509 356.009 256.271 356.599 255.795 356.961C255.319 357.301 254.752 357.471 254.095 357.471C253.392 357.471 252.803 357.301 252.327 356.961C251.851 356.599 251.613 356.009 251.613 355.193C251.613 354.355 251.851 353.777 252.327 353.459C252.803 353.119 253.392 352.949 254.095 352.949ZM268.421 375.389C268.919 375.389 269.395 375.344 269.849 375.253C270.325 375.14 270.767 375.015 271.175 374.879V378.075C270.699 378.279 270.121 378.449 269.441 378.585C268.761 378.744 268.001 378.823 267.163 378.823C266.12 378.823 265.191 378.653 264.375 378.313C263.559 377.951 262.913 377.339 262.437 376.477C261.983 375.616 261.757 374.415 261.757 372.873V363.285H259.445V361.415L262.029 359.919L263.389 356.009H266.245V360.055H271.005V363.285H266.245V372.839C266.245 373.701 266.437 374.347 266.823 374.777C267.231 375.185 267.763 375.389 268.421 375.389ZM290.371 369.235C290.371 370.777 290.178 372.137 289.793 373.315C289.408 374.494 288.841 375.503 288.093 376.341C287.368 377.157 286.484 377.781 285.441 378.211C284.398 378.619 283.231 378.823 281.939 378.823C280.738 378.823 279.616 378.619 278.573 378.211C277.553 377.781 276.669 377.157 275.921 376.341C275.196 375.503 274.629 374.494 274.221 373.315C273.813 372.137 273.609 370.777 273.609 369.235C273.609 367.195 273.938 365.473 274.595 364.067C275.275 362.639 276.25 361.563 277.519 360.837C278.788 360.089 280.296 359.715 282.041 359.715C283.673 359.715 285.112 360.089 286.359 360.837C287.606 361.563 288.58 362.639 289.283 364.067C290.008 365.473 290.371 367.195 290.371 369.235ZM278.199 369.235C278.199 370.527 278.335 371.638 278.607 372.567C278.879 373.474 279.287 374.165 279.831 374.641C280.398 375.117 281.123 375.355 282.007 375.355C282.891 375.355 283.605 375.117 284.149 374.641C284.716 374.165 285.124 373.474 285.373 372.567C285.645 371.638 285.781 370.527 285.781 369.235C285.781 367.921 285.645 366.821 285.373 365.937C285.101 365.031 284.682 364.351 284.115 363.897C283.571 363.421 282.857 363.183 281.973 363.183C280.636 363.183 279.672 363.705 279.083 364.747C278.494 365.79 278.199 367.286 278.199 369.235ZM306.454 373.145C306.454 374.369 306.182 375.412 305.638 376.273C305.094 377.112 304.289 377.747 303.224 378.177C302.159 378.608 300.821 378.823 299.212 378.823C297.988 378.823 296.923 378.733 296.016 378.551C295.109 378.37 294.237 378.087 293.398 377.701V374.063C294.305 374.494 295.279 374.857 296.322 375.151C297.387 375.446 298.351 375.593 299.212 375.593C300.232 375.593 300.969 375.412 301.422 375.049C301.875 374.687 302.102 374.199 302.102 373.587C302.102 373.225 302 372.896 301.796 372.601C301.615 372.307 301.229 372.001 300.64 371.683C300.073 371.343 299.246 370.924 298.158 370.425C297.093 369.949 296.209 369.473 295.506 368.997C294.803 368.521 294.271 367.955 293.908 367.297C293.545 366.617 293.364 365.767 293.364 364.747C293.364 363.093 293.987 361.846 295.234 361.007C296.503 360.146 298.158 359.715 300.198 359.715C301.309 359.715 302.34 359.829 303.292 360.055C304.267 360.259 305.241 360.599 306.216 361.075L304.89 364.237C304.346 363.988 303.791 363.773 303.224 363.591C302.68 363.387 302.147 363.229 301.626 363.115C301.127 363.002 300.629 362.945 300.13 362.945C299.337 362.945 298.736 363.093 298.328 363.387C297.92 363.659 297.716 364.056 297.716 364.577C297.716 364.94 297.818 365.269 298.022 365.563C298.226 365.835 298.611 366.119 299.178 366.413C299.745 366.708 300.549 367.082 301.592 367.535C302.635 367.943 303.519 368.385 304.244 368.861C304.969 369.315 305.513 369.881 305.876 370.561C306.261 371.241 306.454 372.103 306.454 373.145Z" fill="white"/>
<path d="M90.523 40.0933L95.1484 43.1692C95.7862 43.6008 96.8956 43.7276 97.615 43.4592L101.863 41.8716C104.581 40.8577 106.21 42.3332 105.457 45.1514L104.199 49.9265C103.985 50.7352 104.279 51.8882 104.847 52.5072L107.879 55.7682C110.277 58.3508 109.375 60.4061 105.866 60.3585L100.984 60.2877C100.102 60.2744 99.0213 60.8984 98.5797 61.6758L96.2 65.9392C94.4991 68.9945 92.2489 68.7428 91.2183 65.3872L89.9103 61.1306C89.6582 60.3293 88.8063 59.4989 87.9994 59.2791L83.2348 57.9814C80.4298 57.2174 79.9544 55.0758 82.1912 53.2293L85.6903 50.3439C86.2703 49.8622 86.7152 48.838 86.6603 48.0698L86.3092 42.5261C86.1248 39.5145 88.0192 38.4208 90.523 40.0933Z" stroke="#FFC000" stroke-width="4" stroke-linecap="round" stroke-linejoin="round"/>
<path d="M406.853 23.0356L410.4 27.0622C410.887 27.6245 411.89 28.0201 412.629 27.9496L416.99 27.5304C419.779 27.2637 420.931 29.0479 419.523 31.4893L417.155 35.6304C416.754 36.3318 416.739 37.481 417.114 38.2005L419.129 42.0016C420.72 45.011 419.365 46.7033 416.103 45.7817L411.565 44.4949C410.745 44.2621 409.581 44.5741 408.974 45.1891L405.688 48.5724C403.337 50.998 401.3 50.2005 401.177 46.8117L401.021 42.5128C400.986 41.702 400.399 40.7141 399.701 40.3073L395.579 37.9051C393.153 36.4909 393.245 34.3736 395.794 33.2099L399.78 31.3923C400.442 31.0878 401.113 30.2434 401.254 29.5128L402.312 24.2521C402.893 21.3958 404.934 20.8489 406.853 23.0356Z" stroke="#FFC000" stroke-width="3" stroke-linecap="round" stroke-linejoin="round"/>
<path d="M157.87 82.3785L162.495 85.4543C163.133 85.886 164.242 86.0128 164.962 85.7444L169.21 84.1568C171.928 83.1428 173.557 84.6184 172.804 87.4365L171.545 92.2117C171.332 93.0204 171.625 94.1733 172.193 94.7923L175.226 98.0534C177.623 100.636 176.721 102.691 173.213 102.644L168.331 102.573C167.449 102.56 166.368 103.184 165.926 103.961L163.547 108.224C161.846 111.28 159.596 111.028 158.565 107.672L157.257 103.416C157.005 102.615 156.153 101.784 155.346 101.564L150.581 100.267C147.776 99.5026 147.301 97.361 149.538 95.5145L153.037 92.6291C153.617 92.1473 154.062 91.1232 154.007 90.355L153.656 84.8113C153.472 81.7997 155.366 80.706 157.87 82.3785Z" stroke="#FFC000" stroke-width="4" stroke-linecap="round" stroke-linejoin="round"/>
<path d="M347.576 75.6467L349.303 84.2307C349.533 85.4228 350.628 86.8006 351.729 87.3032L358.234 90.269C362.393 92.1679 362.564 95.6283 358.584 97.9302L351.859 101.85C350.72 102.514 349.761 104.126 349.704 105.449L349.449 112.463C349.243 118.014 345.947 119.3 342.09 115.336L336.727 109.816C335.759 108.818 333.859 108.309 332.5 108.683L325.095 110.783C319.794 112.292 317.567 109.504 320.158 104.615L323.444 98.4123C324.057 97.2382 324.033 95.363 323.378 94.2186L319.514 87.4615C317.239 83.4835 319.096 80.5665 323.648 81.0016L330.764 81.6856C331.947 81.7951 333.585 81.1495 334.38 80.232L340.168 73.6617C343.319 70.0994 346.649 70.9918 347.576 75.6467Z" stroke="#FFC000" stroke-width="4" stroke-linecap="round" stroke-linejoin="round"/>
<path d="M22.2554 198.554L26.8808 201.63C27.5187 202.062 28.6281 202.189 29.3474 201.92L33.5958 200.333C36.3133 199.319 37.9424 200.794 37.1894 203.612L35.9309 208.387C35.7178 209.196 36.0111 210.349 36.579 210.968L39.6113 214.229C42.009 216.812 41.107 218.867 37.5985 218.819L32.7164 218.749C31.8345 218.735 30.7537 219.359 30.3121 220.137L27.9324 224.4C26.2315 227.455 23.9813 227.204 22.9507 223.848L21.6427 219.592C21.3906 218.79 20.5387 217.96 19.7318 217.74L14.9672 216.442C12.1622 215.678 11.6868 213.537 13.9237 211.69L17.4227 208.805C18.0027 208.323 18.4476 207.299 18.3927 206.531L18.0417 200.987C17.8573 197.975 19.7516 196.882 22.2554 198.554Z" stroke="#FFC000" stroke-width="4" stroke-linecap="round" stroke-linejoin="round"/>
<path d="M418.882 119.113L421.087 130.071C421.38 131.593 422.778 133.351 424.184 133.993L432.487 137.779C437.797 140.203 438.015 144.621 432.934 147.559L424.349 152.563C422.895 153.41 421.672 155.468 421.599 157.157L421.274 166.111C421.011 173.198 416.803 174.839 411.878 169.779L405.033 162.731C403.797 161.458 401.371 160.808 399.636 161.286L390.184 163.966C383.417 165.893 380.573 162.333 383.881 156.092L388.077 148.174C388.858 146.676 388.828 144.282 387.992 142.821L383.059 134.195C380.155 129.117 382.526 125.393 388.336 125.949L397.42 126.822C398.931 126.962 401.021 126.138 402.036 124.966L409.425 116.579C413.447 112.031 417.699 113.171 418.882 119.113Z" stroke="#FFC000" stroke-width="4" stroke-linecap="round" stroke-linejoin="round"/>
<path d="M50.8405 111.196L52.2859 118.379C52.4782 119.377 53.3948 120.53 54.3162 120.951L59.7598 123.433C63.2405 125.022 63.3837 127.918 60.0526 129.844L54.4246 133.124C53.4714 133.68 52.6695 135.029 52.6218 136.136L52.4085 142.006C52.2361 146.652 49.4775 147.728 46.2492 144.41L41.7614 139.79C40.9511 138.955 39.361 138.529 38.2238 138.843L32.0273 140.6C27.5908 141.863 25.7267 139.529 27.8954 135.438L30.6458 130.247C31.158 129.265 31.138 127.696 30.5904 126.738L27.3565 121.083C25.4527 117.754 27.0068 115.313 30.8157 115.677L36.7711 116.249C37.7614 116.341 39.1318 115.801 39.7971 115.033L44.6407 109.534C47.2779 106.553 50.0651 107.3 50.8405 111.196Z" stroke="#FFC000" stroke-width="4" stroke-linecap="round" stroke-linejoin="round"/>
<path d="M113.679 143.202L122.375 148.984C123.574 149.796 125.659 150.034 127.012 149.529L134.998 146.545C140.107 144.639 143.17 147.412 141.754 152.71L139.388 161.687C138.988 163.208 139.539 165.375 140.607 166.539L146.307 172.669C150.815 177.525 149.119 181.388 142.523 181.299L133.345 181.166C131.687 181.141 129.656 182.314 128.825 183.775L124.352 191.79C121.154 197.534 116.924 197.061 114.986 190.753L112.527 182.75C112.053 181.244 110.452 179.683 108.935 179.27L99.9779 176.83C94.7047 175.394 93.8109 171.368 98.0161 167.897L104.594 162.472C105.684 161.566 106.521 159.641 106.418 158.197L105.758 147.775C105.411 142.114 108.972 140.057 113.679 143.202Z" stroke="#FFC000" stroke-width="4" stroke-linecap="round" stroke-linejoin="round"/>
</svg>
