<svg width="94" height="73" viewBox="0 0 94 73" fill="none" xmlns="http://www.w3.org/2000/svg">
<g opacity="0.4">
<g filter="url(#filter0_d_935_260463)">
<path fill-rule="evenodd" clip-rule="evenodd" d="M70.5223 2.65745C70.5223 1.74285 69.7675 1 68.8373 1H30.0834C29.1536 1 28.3984 1.74247 28.3984 2.65745V63.1479C28.3984 64.0625 29.1536 64.8053 30.0834 64.8053H68.8373C69.7671 64.8053 70.5223 64.0625 70.5223 63.1479V2.65745Z" fill="#E9F2FF"/>
</g>
<g filter="url(#filter1_dd_935_260463)">
<path fill-rule="evenodd" clip-rule="evenodd" d="M66.8065 6.37425C66.8065 5.45965 66.0517 4.7168 65.1215 4.7168H26.3676C25.4378 4.7168 24.6826 5.45965 24.6826 6.37425V66.8647C24.6826 67.7796 25.4378 68.5221 26.3676 68.5221H65.1215C66.0513 68.5221 66.8065 67.7796 66.8065 66.8647V6.37425Z" fill="#F6FAFF"/>
<path fill-rule="evenodd" clip-rule="evenodd" d="M62.5908 63.4176C62.5908 63.2226 62.4324 63.0641 62.2375 63.0641H29.4706C29.2756 63.0641 29.1172 63.2226 29.1172 63.4176V64.4777C29.1172 64.6728 29.2756 64.8313 29.4706 64.8313H62.2375C62.4324 64.8313 62.5908 64.6728 62.5908 64.4777V63.4176ZM62.5908 58.5787C62.5908 58.3836 62.4324 58.2251 62.2375 58.2251H29.4706C29.2756 58.2251 29.1172 58.3836 29.1172 58.5787V59.6388C29.1172 59.8338 29.2756 59.9923 29.4706 59.9923H62.2375C62.4324 59.9923 62.5908 59.8338 62.5908 59.6388V58.5787ZM62.5908 53.7397C62.5908 53.5447 62.4324 53.3862 62.2375 53.3862H29.4706C29.2756 53.3862 29.1172 53.5447 29.1172 53.7397V54.7999C29.1172 54.9949 29.2756 55.1534 29.4706 55.1534H62.2375C62.4324 55.1534 62.5908 54.9949 62.5908 54.7999V53.7397ZM62.5908 48.9008C62.5908 48.7058 62.4324 48.5473 62.2375 48.5473H29.4706C29.2756 48.5473 29.1172 48.7058 29.1172 48.9008V49.961C29.1172 50.156 29.2756 50.3145 29.4706 50.3145H62.2375C62.4324 50.3145 62.5908 50.156 62.5908 49.961V48.9008ZM62.5908 44.0619C62.5908 43.8669 62.4324 43.7084 62.2375 43.7084H29.4706C29.2756 43.7084 29.1172 43.8669 29.1172 44.0619V45.1221C29.1172 45.3171 29.2756 45.4756 29.4706 45.4756H62.2375C62.4324 45.4756 62.5908 45.3171 62.5908 45.1221V44.0619ZM62.5908 39.223C62.5908 39.028 62.4324 38.8695 62.2375 38.8695H29.4706C29.2756 38.8695 29.1172 39.028 29.1172 39.223V40.2831C29.1172 40.4782 29.2756 40.6367 29.4706 40.6367H62.2375C62.4324 40.6367 62.5908 40.4782 62.5908 40.2831V39.223ZM62.5908 34.3841C62.5908 34.189 62.4324 34.0305 62.2375 34.0305H29.4706C29.2756 34.0305 29.1172 34.189 29.1172 34.3841V35.4442C29.1172 35.6392 29.2756 35.7977 29.4706 35.7977H62.2375C62.4324 35.7977 62.5908 35.6392 62.5908 35.4442V34.3841ZM62.5908 29.5451C62.5908 29.3501 62.4324 29.1916 62.2375 29.1916H29.4706C29.2756 29.1916 29.1172 29.3501 29.1172 29.5451V30.6053C29.1172 30.8003 29.2756 30.9588 29.4706 30.9588H62.2375C62.4324 30.9588 62.5908 30.8003 62.5908 30.6053V29.5451ZM62.5908 24.7062C62.5908 24.5112 62.4324 24.3527 62.2375 24.3527H29.4706C29.2756 24.3527 29.1172 24.5112 29.1172 24.7062V25.7664C29.1172 25.9614 29.2756 26.1199 29.4706 26.1199H62.2375C62.4324 26.1199 62.5908 25.9614 62.5908 25.7664V24.7062ZM62.5908 19.8673C62.5908 19.6723 62.4324 19.5138 62.2375 19.5138H29.4706C29.2756 19.5138 29.1172 19.6723 29.1172 19.8673V20.9275C29.1172 21.1225 29.2756 21.281 29.4706 21.281H62.2375C62.4324 21.281 62.5908 21.1225 62.5908 20.9275V19.8673ZM62.5908 15.0284C62.5908 14.8334 62.4324 14.6749 62.2375 14.6749H29.4706C29.2756 14.6749 29.1172 14.8334 29.1172 15.0284V16.0885C29.1172 16.2836 29.2756 16.4421 29.4706 16.4421H62.2375C62.4324 16.4421 62.5908 16.2836 62.5908 16.0885V15.0284ZM62.5908 10.1895C62.5908 9.99444 62.4324 9.83594 62.2375 9.83594H29.4706C29.2756 9.83594 29.1172 9.99444 29.1172 10.1895V11.2496C29.1172 11.4446 29.2756 11.6031 29.4706 11.6031H62.2375C62.4324 11.6031 62.5908 11.4446 62.5908 11.2496V10.1895Z" fill="#E9F2FF"/>
</g>
<g filter="url(#filter2_dd_935_260463)">
<path fill-rule="evenodd" clip-rule="evenodd" d="M32.976 36.5521C28.915 30.038 30.4519 21.3899 36.7271 16.6882C43.3751 11.7069 52.8404 13.0289 57.8508 19.6388C62.8612 26.2484 61.5314 35.6588 54.883 40.6402C48.6257 45.3285 39.9693 44.5169 34.7844 38.8844L6.24691 60.8313C5.8177 61.1639 5.27192 61.3113 4.7322 61.2403C4.19249 61.1693 3.70432 60.8859 3.37651 60.4538C3.07532 60.0565 2.94696 59.5561 3.02007 59.0644C3.09284 58.5724 3.36102 58.1302 3.76462 57.8362L32.976 36.5521Z" fill="#0088FF"/>
</g>
<path fill-rule="evenodd" clip-rule="evenodd" d="M55.5447 21.1042C59.6741 26.5833 58.5782 34.3844 53.0988 38.5135C47.6198 42.6429 39.8187 41.547 35.6896 36.0676C31.5602 30.5885 32.6561 22.7877 38.1355 18.6583C43.6145 14.5289 51.4153 15.6248 55.5447 21.1042Z" fill="white"/>
<path d="M49.5841 25.0352L42.4814 32.1378M49.5841 32.1378L42.4814 25.0352" stroke="#DC3545" stroke-width="3" stroke-linecap="round"/>
</g>
<defs>
<filter id="filter0_d_935_260463" x="26.3984" y="0" width="46.124" height="67.8057" filterUnits="userSpaceOnUse" color-interpolation-filters="sRGB">
<feFlood flood-opacity="0" result="BackgroundImageFix"/>
<feColorMatrix in="SourceAlpha" type="matrix" values="0 0 0 0 0 0 0 0 0 0 0 0 0 0 0 0 0 0 127 0" result="hardAlpha"/>
<feOffset dy="1"/>
<feGaussianBlur stdDeviation="1"/>
<feComposite in2="hardAlpha" operator="out"/>
<feColorMatrix type="matrix" values="0 0 0 0 0.0627451 0 0 0 0 0.0941176 0 0 0 0 0.156863 0 0 0 0.05 0"/>
<feBlend mode="normal" in2="BackgroundImageFix" result="effect1_dropShadow_935_260463"/>
<feBlend mode="normal" in="SourceGraphic" in2="effect1_dropShadow_935_260463" result="shape"/>
</filter>
<filter id="filter1_dd_935_260463" x="21.6826" y="2.7168" width="48.124" height="69.8057" filterUnits="userSpaceOnUse" color-interpolation-filters="sRGB">
<feFlood flood-opacity="0" result="BackgroundImageFix"/>
<feColorMatrix in="SourceAlpha" type="matrix" values="0 0 0 0 0 0 0 0 0 0 0 0 0 0 0 0 0 0 127 0" result="hardAlpha"/>
<feMorphology radius="1" operator="erode" in="SourceAlpha" result="effect1_dropShadow_935_260463"/>
<feOffset dy="1"/>
<feGaussianBlur stdDeviation="1"/>
<feComposite in2="hardAlpha" operator="out"/>
<feColorMatrix type="matrix" values="0 0 0 0 0.0627451 0 0 0 0 0.0941176 0 0 0 0 0.156863 0 0 0 0.1 0"/>
<feBlend mode="normal" in2="BackgroundImageFix" result="effect1_dropShadow_935_260463"/>
<feColorMatrix in="SourceAlpha" type="matrix" values="0 0 0 0 0 0 0 0 0 0 0 0 0 0 0 0 0 0 127 0" result="hardAlpha"/>
<feOffset dy="1"/>
<feGaussianBlur stdDeviation="1.5"/>
<feComposite in2="hardAlpha" operator="out"/>
<feColorMatrix type="matrix" values="0 0 0 0 0.0627451 0 0 0 0 0.0941176 0 0 0 0 0.156863 0 0 0 0.1 0"/>
<feBlend mode="normal" in2="effect1_dropShadow_935_260463" result="effect2_dropShadow_935_260463"/>
<feBlend mode="normal" in="SourceGraphic" in2="effect2_dropShadow_935_260463" result="shape"/>
</filter>
<filter id="filter2_dd_935_260463" x="0" y="11.6699" width="63.8867" height="53.5879" filterUnits="userSpaceOnUse" color-interpolation-filters="sRGB">
<feFlood flood-opacity="0" result="BackgroundImageFix"/>
<feColorMatrix in="SourceAlpha" type="matrix" values="0 0 0 0 0 0 0 0 0 0 0 0 0 0 0 0 0 0 127 0" result="hardAlpha"/>
<feMorphology radius="1" operator="erode" in="SourceAlpha" result="effect1_dropShadow_935_260463"/>
<feOffset dy="1"/>
<feGaussianBlur stdDeviation="1"/>
<feComposite in2="hardAlpha" operator="out"/>
<feColorMatrix type="matrix" values="0 0 0 0 0.0627451 0 0 0 0 0.0941176 0 0 0 0 0.156863 0 0 0 0.1 0"/>
<feBlend mode="normal" in2="BackgroundImageFix" result="effect1_dropShadow_935_260463"/>
<feColorMatrix in="SourceAlpha" type="matrix" values="0 0 0 0 0 0 0 0 0 0 0 0 0 0 0 0 0 0 127 0" result="hardAlpha"/>
<feOffset dy="1"/>
<feGaussianBlur stdDeviation="1.5"/>
<feComposite in2="hardAlpha" operator="out"/>
<feColorMatrix type="matrix" values="0 0 0 0 0.0627451 0 0 0 0 0.0941176 0 0 0 0 0.156863 0 0 0 0.1 0"/>
<feBlend mode="normal" in2="effect1_dropShadow_935_260463" result="effect2_dropShadow_935_260463"/>
<feBlend mode="normal" in="SourceGraphic" in2="effect2_dropShadow_935_260463" result="shape"/>
</filter>
</defs>
</svg>
