<svg width="32" height="32" viewBox="0 0 32 32" fill="none" xmlns="http://www.w3.org/2000/svg">
<g clip-path="url(#clip0_935_271649)">
<path d="M27.5556 0H4.44444C1.99111 0 0 1.99111 0 4.44444V27.5556C0 30.0089 1.99111 32 4.44444 32H27.5556C30.0089 32 32 30.0089 32 27.5556V4.44444C32 1.99111 30.0089 0 27.5556 0Z" fill="#DDF3E9"/>
<path fill-rule="evenodd" clip-rule="evenodd" d="M14.9629 8.24882C14.8727 8.24882 14.7861 8.28468 14.7223 8.3485C14.6585 8.41232 14.6226 8.49887 14.6226 8.58913V18.9449L18.0019 20.893C18.3038 21.067 18.4897 21.3889 18.4897 21.7373V32.7508H27.0592V8.58913C27.0592 8.49887 27.0234 8.41232 26.9596 8.3485C26.8958 8.28468 26.8092 8.24882 26.7189 8.24882H14.9629ZM16.5407 32.7508V22.3003L10.9412 19.0724L5.3416 22.3003V32.7508H9.96665V25.6817C9.96665 25.1435 10.403 24.7072 10.9412 24.7072C11.4794 24.7072 11.9157 25.1435 11.9157 25.6817V32.7508H16.5407ZM12.6736 17.8214L11.4279 17.1032C11.1266 16.9296 10.7557 16.9296 10.4545 17.1032L3.88039 20.893C3.57856 21.067 3.39258 21.3889 3.39258 21.7373V33.7253C3.39258 34.2635 3.82888 34.6998 4.36709 34.6998H28.0338C28.572 34.6998 29.0083 34.2635 29.0083 33.7253V8.58913C29.0083 7.98196 28.7671 7.39966 28.3377 6.97033C27.9084 6.541 27.3261 6.2998 26.7189 6.2998H14.9629C14.3558 6.2998 13.7735 6.541 13.3442 6.97033C12.9148 7.39966 12.6736 7.98196 12.6736 8.58913V17.8214Z" fill="#0AA16E"/>
</g>
<defs>
<clipPath id="clip0_935_271649">
<rect width="32" height="32" rx="16" fill="white"/>
</clipPath>
</defs>
</svg>
