<svg width="316" height="40" viewBox="0 0 316 40" fill="none" xmlns="http://www.w3.org/2000/svg">
<path fill-rule="evenodd" clip-rule="evenodd" d="M282.983 24.3085V23.6197C283.592 23.5938 284.075 23.3911 284.431 23.0078C284.81 22.5985 285.065 22.1154 285.218 21.5524C285.371 20.9923 285.445 20.4812 285.445 19.9961C285.445 19.3592 285.344 18.8231 285.141 18.338C284.964 17.8538 284.684 17.4715 284.329 17.19C283.973 16.9344 283.54 16.7827 283.085 16.7827H282.984V16.1198H283.007C283.743 16.1198 284.379 16.2476 284.937 16.4513C285.471 16.6549 285.928 16.9604 286.284 17.3437C286.64 17.7011 286.918 18.1343 287.071 18.6444C287.248 19.1296 287.35 19.6387 287.35 20.2007C287.35 20.8396 287.224 21.4006 286.995 21.9117C286.79 22.4208 286.46 22.8291 286.055 23.1865C285.649 23.5439 285.166 23.7994 284.632 23.9771C284.124 24.1568 283.567 24.2566 282.983 24.3085ZM282.984 16.1198V16.7827C282.145 16.8346 281.535 17.19 281.153 17.8548C280.722 18.5696 280.519 19.461 280.519 20.585C280.543 21.2209 280.646 21.758 280.873 22.2172C281.077 22.6764 281.356 23.0338 281.711 23.2624C282.067 23.494 282.449 23.6197 282.879 23.6197H282.983V24.3085H282.854C282.27 24.3085 281.661 24.2067 281.027 23.9771C280.367 23.7475 279.807 23.3652 279.35 22.7782C278.867 22.1912 278.615 21.4006 278.615 20.4054C278.64 20.3534 278.64 20.3015 278.64 20.2536C278.64 19.7425 278.742 19.2574 278.893 18.7982C279.072 18.313 279.324 17.8798 279.68 17.4705C280.036 17.0642 280.467 16.7328 281.027 16.5032C281.585 16.2476 282.221 16.1198 282.984 16.1198ZM262.306 24.3085V23.6197C262.916 23.5938 263.398 23.3901 263.779 23.0068C264.161 22.5995 264.413 22.1154 264.566 21.5543C264.693 20.9933 264.769 20.4822 264.769 19.9971C264.769 19.3602 264.667 18.8241 264.491 18.339C264.286 17.8538 264.008 17.4705 263.652 17.191C263.296 16.9374 262.89 16.7837 262.407 16.7837H262.306V16.1208H262.358C263.068 16.1208 263.728 16.2486 264.263 16.4523C264.82 16.6559 265.279 16.9614 265.634 17.3447C265.988 17.7021 266.243 18.1353 266.422 18.6454C266.599 19.1306 266.674 19.6417 266.674 20.2017C266.674 20.8406 266.573 21.4016 266.344 21.9127C266.116 22.4218 265.811 22.8311 265.404 23.1875C264.998 23.5449 264.516 23.7984 263.982 23.9771C263.475 24.1578 262.915 24.2586 262.305 24.3105L262.306 24.3085ZM272.567 22.3689H272.795C272.871 22.7263 273.05 23.0338 273.304 23.2634C273.559 23.493 273.913 23.5938 274.371 23.6197C274.726 23.6197 275.056 23.5179 275.311 23.2893C275.539 23.0837 275.667 22.7782 275.667 22.4468C275.667 22.1154 275.565 21.8339 275.337 21.6043C275.106 21.3747 274.726 21.1451 274.194 20.9155C273.762 20.7378 273.407 20.5321 273.152 20.3295C272.872 20.1238 272.67 19.8703 272.518 19.5888C272.365 19.2833 272.289 18.9519 272.289 18.5436C272.289 18.1084 272.391 17.7011 272.594 17.3437C272.773 16.9604 273.077 16.6809 273.458 16.4513C273.864 16.2476 274.372 16.1198 274.956 16.1198C275.286 16.1198 275.618 16.1717 275.946 16.2716C276.276 16.3734 276.53 16.5032 276.707 16.6549C276.658 16.8346 276.606 17.0382 276.53 17.2159C276.481 17.4196 276.403 17.5993 276.351 17.8029H276.175C276.099 17.5214 275.946 17.2938 275.717 17.0881C275.489 16.9105 275.235 16.8066 274.88 16.8066C274.041 16.8066 273.635 17.19 273.635 17.9566C273.635 18.3899 273.965 18.7722 274.625 19.1046L275.463 19.5119C276.099 19.8174 276.53 20.1748 276.759 20.5571C276.988 20.9664 277.089 21.3996 277.089 21.8588C277.089 22.2661 276.988 22.5975 276.809 22.905C276.658 23.2105 276.429 23.466 276.124 23.6956C275.844 23.8993 275.514 24.052 275.158 24.1548C274.776 24.2566 274.422 24.3065 274.041 24.3065C273.33 24.2806 272.72 24.1288 272.237 23.8214C272.39 23.3123 272.491 22.8261 272.567 22.3669V22.3689ZM262.306 16.1188V16.7817C261.493 16.8316 260.884 17.189 260.477 17.8528C260.072 18.5676 259.868 19.46 259.868 20.583C259.868 21.2199 259.995 21.756 260.198 22.2152C260.427 22.6764 260.707 23.0338 261.062 23.2634C261.417 23.492 261.797 23.6197 262.205 23.6197H262.306V24.3085H262.179C261.62 24.3085 261.011 24.2067 260.351 23.9751C259.715 23.7465 259.156 23.3632 258.674 22.7782C258.191 22.1912 257.963 21.4006 257.937 20.4054C257.963 20.3534 257.963 20.3015 257.963 20.2536C257.987 19.7425 258.064 19.2574 258.243 18.7982C258.42 18.313 258.674 17.8798 259.004 17.4705C259.36 17.0642 259.816 16.7318 260.375 16.5012C260.91 16.2476 261.57 16.1208 262.306 16.1208V16.1188ZM253.289 21.9107V19.9202C253.873 19.7425 254.179 19.2314 254.205 18.3899C254.205 17.9806 254.127 17.6751 254.002 17.4695C253.874 17.2409 253.721 17.1131 253.519 17.0372C253.442 17.0372 253.366 17.0113 253.289 16.9853V16.3225H253.543C254.076 16.3225 254.483 16.3724 254.738 16.4503C254.99 16.5521 255.245 16.7058 255.473 16.9594C255.777 17.2409 255.956 17.6502 255.956 18.1852C255.956 18.7972 255.753 19.2823 255.398 19.6137C255.042 19.9192 254.634 20.1508 254.178 20.2526C254.433 20.7108 254.685 21.1181 254.914 21.4495C255.116 21.8069 255.42 22.2661 255.828 22.879C256.21 23.5159 256.488 23.9512 256.641 24.1798C256.259 24.1298 255.929 24.1039 255.625 24.1039C255.295 24.1039 254.965 24.1298 254.558 24.1798C254.355 23.7964 254.076 23.3123 253.771 22.7772C253.594 22.4458 253.442 22.1643 253.289 21.9107ZM253.289 16.3225V16.9853C253.138 16.9594 252.984 16.9594 252.782 16.9594H252.402V20.021H252.654C252.909 20.021 253.112 19.9961 253.289 19.9202V21.9107C253.213 21.756 253.112 21.6023 253.061 21.5004C252.882 21.169 252.681 20.8376 252.477 20.5062H252.401V24.1798C252.069 24.1298 251.765 24.1039 251.538 24.1039C251.312 24.1039 251.029 24.1298 250.674 24.1798V16.3225H253.289ZM195.659 24.0779V23.3392C196.902 23.0078 197.538 21.9107 197.538 20.023C197.538 18.9249 197.309 18.1343 196.826 17.6761C196.497 17.3687 196.115 17.165 195.659 17.0632V16.3245H195.989C196.572 16.3245 197.156 16.4503 197.665 16.7318C198.198 16.9853 198.63 17.3946 198.96 17.9566C199.264 18.4917 199.443 19.1565 199.443 19.9462C199.418 20.7368 199.264 21.4515 198.934 22.0894C198.63 22.7283 198.147 23.2134 197.486 23.5688C196.978 23.8763 196.369 24.028 195.659 24.0779ZM201.651 24.1049V16.3235H205.995C205.969 16.4493 205.943 16.603 205.894 16.8326C205.919 16.9604 205.943 17.1141 205.969 17.3177C205.208 17.2139 204.446 17.164 203.734 17.164H203.354V19.5868H204.827C205.284 19.5868 205.639 19.5628 205.919 19.485C205.919 19.6127 205.894 19.7146 205.894 19.8164C205.868 19.8923 205.868 19.9701 205.868 20.046C205.894 20.1738 205.919 20.3534 205.919 20.5052C205.564 20.4293 205.106 20.3774 204.548 20.3774H203.354V23.2873C204.268 23.2873 205.132 23.2354 205.995 23.1336C205.943 23.3372 205.919 23.5149 205.894 23.6687C205.943 23.7964 205.943 23.9502 205.969 24.1019L201.651 24.1049ZM208.129 16.3235C208.433 16.3474 208.713 16.3734 208.992 16.3994C208.992 16.3994 209.119 16.3734 209.323 16.3734C209.526 16.3494 209.703 16.3235 209.856 16.3235V23.2883C210.592 23.2883 211.455 23.2364 212.471 23.1346C212.447 23.2624 212.396 23.4401 212.37 23.6437C212.396 23.7725 212.421 23.9252 212.447 24.1029H208.129V16.3235ZM218.441 22.3689H218.67C218.747 22.7263 218.924 23.0318 219.177 23.2614C219.431 23.491 219.787 23.5928 220.244 23.6187C220.624 23.6187 220.93 23.5169 221.184 23.2853C221.437 23.0827 221.564 22.7762 221.564 22.4438C221.564 22.1114 221.437 21.8309 221.208 21.6023C221.006 21.3727 220.599 21.1431 220.066 20.9135C219.633 20.7338 219.303 20.5301 219.023 20.3265C218.745 20.1228 218.541 19.8673 218.389 19.5858C218.238 19.2803 218.186 18.9489 218.186 18.5406C218.186 18.1074 218.263 17.6981 218.466 17.3417C218.643 16.9584 218.949 16.6769 219.355 16.4473C219.734 16.2436 220.243 16.1158 220.828 16.1158C221.157 16.1158 221.488 16.1678 221.817 16.2696C222.147 16.3714 222.402 16.4992 222.605 16.6529C222.529 16.8306 222.477 17.0342 222.428 17.2129C222.35 17.4186 222.301 17.5963 222.223 17.7999H222.072C221.971 17.5204 221.817 17.2908 221.589 17.0862C221.384 16.9065 221.106 16.8046 220.776 16.8046C219.938 16.8046 219.506 17.188 219.506 17.9526C219.506 18.3859 219.838 18.7692 220.498 19.1006L221.335 19.5099C221.972 19.8144 222.403 20.1718 222.631 20.5551C222.859 20.9624 222.961 21.3976 222.961 21.8558C222.961 22.2651 222.858 22.5965 222.707 22.904C222.53 23.2085 222.3 23.464 221.995 23.6936C221.715 23.8973 221.385 24.05 221.03 24.1528C220.675 24.2546 220.293 24.3065 219.938 24.3065C219.201 24.2806 218.616 24.1269 218.108 23.8214C218.261 23.3103 218.363 22.8271 218.438 22.3679L218.441 22.3689ZM224.994 24.1029V16.3235H229.363C229.339 16.4493 229.287 16.603 229.262 16.8326C229.287 16.9604 229.313 17.1141 229.339 17.3177C228.552 17.2159 227.816 17.164 227.103 17.164H226.723V19.5868H228.196C228.653 19.5868 229.008 19.5608 229.288 19.485C229.288 19.6127 229.263 19.7146 229.237 19.8164C229.237 19.8942 229.237 19.9701 229.213 20.046C229.237 20.1738 229.263 20.3534 229.288 20.5052C228.933 20.4293 228.476 20.3794 227.917 20.3794H226.723V23.2863C227.612 23.2863 228.501 23.2364 229.364 23.1346C229.314 23.3382 229.288 23.5179 229.263 23.6697C229.288 23.7974 229.314 23.9512 229.34 24.1029H224.994ZM231.065 20.4293C231.065 19.9202 231.166 19.4091 231.319 18.9249C231.47 18.4138 231.724 17.9546 232.079 17.5454C232.437 17.1381 232.92 16.7817 233.53 16.5261C234.14 16.2706 234.875 16.1428 235.74 16.1168C236.78 16.1168 237.72 16.3464 238.507 16.8056C238.431 16.9833 238.356 17.187 238.305 17.4166C238.227 17.6741 238.202 17.8518 238.178 17.9776H238.025C237.746 17.5444 237.414 17.2638 237.009 17.0862C236.603 16.9065 236.196 16.8046 235.79 16.8046C235.359 16.8046 235.003 16.8805 234.647 17.0602C234.317 17.2139 234.013 17.4675 233.759 17.7749C233.505 18.0804 233.328 18.4627 233.176 18.9229C233.046 19.3811 232.973 19.8923 232.945 20.4533C232.945 21.0902 233.046 21.6522 233.275 22.1373C233.503 22.6225 233.833 22.9789 234.215 23.2594C234.621 23.5149 235.053 23.6417 235.536 23.6667C236.019 23.6407 236.476 23.5149 236.932 23.3093V20.631C237.238 20.6829 237.543 20.6829 237.797 20.6829C238.051 20.6829 238.33 20.6829 238.66 20.631V23.7944C237.567 24.1518 236.552 24.3055 235.613 24.3055C235.079 24.3055 234.546 24.2536 234.012 24.0999C233.48 23.9741 232.997 23.7685 232.564 23.463C232.107 23.1575 231.751 22.7483 231.472 22.2382C231.216 21.729 231.065 21.1411 231.065 20.4263V20.4293ZM241.224 21.194V16.3205C241.528 16.3724 241.81 16.3964 242.063 16.3964C242.315 16.3964 242.621 16.3724 242.927 16.3205V20.7088C242.927 21.1161 242.951 21.4994 243.028 21.8568C243.079 22.1882 243.181 22.4697 243.282 22.6474C243.69 23.2344 244.221 23.5139 244.933 23.5139C245.341 23.5139 245.671 23.462 245.925 23.3362C246.177 23.2344 246.407 23.0308 246.636 22.7493C246.838 22.4438 246.991 22.0605 247.043 21.6272C247.119 21.194 247.144 20.7088 247.144 20.1728V16.3205C247.194 16.3205 247.272 16.3205 247.373 16.3464C247.473 16.3464 247.55 16.3464 247.575 16.3704C247.626 16.3464 247.702 16.3464 247.805 16.3464C247.909 16.3464 247.982 16.3205 248.058 16.3205V20.4792C248.058 21.1421 248.008 21.729 247.881 22.2142C247.78 22.6983 247.575 23.0817 247.247 23.3871C247.018 23.5928 246.79 23.7445 246.559 23.8983C246.332 24.024 246.053 24.1279 245.747 24.2057C245.443 24.2806 245.087 24.3065 244.68 24.3065C243.488 24.3065 242.574 24.0011 241.938 23.3891C241.455 22.8541 241.226 22.1134 241.226 21.194H241.224ZM195.659 17.0612C195.454 17.0352 195.2 17.0093 194.947 17.0093H193.778V23.4401H194.846C195.15 23.4401 195.404 23.4131 195.659 23.3362V24.0749C195.506 24.1019 195.327 24.1019 195.15 24.1019H192.102V16.3205H195.659V17.0612ZM181.688 24.3075V23.6187C182.296 23.5928 182.78 23.3891 183.136 23.0058C183.516 22.5985 183.772 22.1134 183.923 21.5514C184.076 20.9903 184.152 20.4802 184.152 19.9951C184.152 19.3582 184.05 18.8221 183.847 18.337C183.669 17.8518 183.39 17.4685 183.034 17.189C182.679 16.9334 182.273 16.7797 181.791 16.7797H181.688V16.1178H181.714C182.449 16.1178 183.084 16.2436 183.645 16.4483C184.177 16.6519 184.635 16.9594 184.99 17.3407C185.345 17.6981 185.625 18.1313 185.803 18.6424C185.954 19.1276 186.058 19.6367 186.058 20.1987C186.058 20.8356 185.929 21.3976 185.726 21.9087C185.497 22.4198 185.167 22.8271 184.76 23.1835C184.354 23.5429 183.872 23.7964 183.338 23.9741C182.831 24.1538 182.272 24.2556 181.688 24.3075ZM181.688 16.1178V16.7797C180.849 16.8316 180.24 17.19 179.858 17.8528C179.427 18.5676 179.224 19.46 179.224 20.583C179.25 21.2199 179.351 21.756 179.58 22.2152C179.783 22.6744 180.063 23.0318 180.418 23.2614C180.773 23.491 181.155 23.6187 181.586 23.6187H181.688V24.3075H181.561C180.976 24.3075 180.367 24.2057 179.733 23.9741C179.099 23.7455 178.513 23.3622 178.056 22.7752C177.573 22.1882 177.319 21.3976 177.319 20.4024C177.345 20.3524 177.345 20.3005 177.345 20.2506C177.345 19.7395 177.446 19.2564 177.625 18.7962C177.776 18.311 178.03 17.8778 178.386 17.4685C178.742 17.0612 179.198 16.7298 179.732 16.4992C180.29 16.2436 180.926 16.1178 181.688 16.1178ZM162.334 21.781V21.0672H163.376L162.36 18.4128L162.334 18.4887V16.2696L162.36 16.2197C162.435 16.2197 162.487 16.2436 162.563 16.2436H162.791C163.046 16.2436 163.197 16.2197 163.223 16.2197L166.398 24.1528C166.271 24.1528 166.092 24.1269 165.865 24.1269C165.661 24.1269 165.484 24.1269 165.356 24.1009C165.255 24.1269 165.102 24.1269 164.899 24.1269C164.696 24.1528 164.543 24.1528 164.442 24.1528C164.213 23.3622 163.935 22.5706 163.655 21.78L162.334 21.781ZM168.302 24.1538V16.3225H169.445C169.777 16.6789 170.157 17.1131 170.588 17.5713C171.019 18.0305 171.427 18.5157 171.884 19.0008C172.316 19.46 172.746 19.9192 173.153 20.3784C173.561 20.8116 173.942 21.2449 174.322 21.6791V16.3225C174.372 16.3225 174.449 16.3464 174.525 16.3464C174.626 16.3464 174.704 16.3464 174.753 16.3724C174.805 16.3464 174.881 16.3464 174.982 16.3464C175.083 16.3464 175.159 16.3225 175.211 16.3225V24.1798L174.27 24.1538C173.001 22.7503 172.035 21.6791 171.427 20.9644C170.767 20.2506 170.031 19.46 169.216 18.6175V24.1538C169.14 24.1538 169.065 24.1279 168.963 24.1279C168.836 24.1279 168.758 24.1279 168.709 24.1019C168.659 24.1279 168.607 24.1279 168.506 24.1279C168.43 24.1279 168.354 24.1538 168.302 24.1538ZM162.334 16.2696V18.4887L161.292 21.0682L162.334 21.0672V21.781L160.987 21.7839C160.938 21.9097 160.86 22.1653 160.709 22.5746C160.556 22.9559 160.455 23.2634 160.377 23.492C160.303 23.7216 160.226 23.9252 160.174 24.1548C160.125 24.1548 160.021 24.1288 159.896 24.1288C159.771 24.1288 159.691 24.1289 159.616 24.1029C159.566 24.1289 159.491 24.1288 159.363 24.1288C159.262 24.1548 159.184 24.1548 159.109 24.1548L162.334 16.2716V16.2696ZM111.458 24.3075V23.6187C112.069 23.5928 112.551 23.3891 112.931 23.0078C113.313 22.5985 113.568 22.1154 113.719 21.5524C113.846 20.9923 113.923 20.4812 113.923 19.9981C113.923 19.3592 113.822 18.8241 113.643 18.339C113.44 17.8538 113.161 17.4715 112.804 17.191C112.449 16.9374 112.043 16.7837 111.561 16.7837H111.458V16.1208H111.509C112.221 16.1208 112.856 16.2486 113.414 16.4523C113.973 16.6579 114.43 16.9634 114.785 17.3447C115.143 17.7021 115.397 18.1353 115.574 18.6464C115.751 19.1306 115.829 19.6397 115.829 20.2027C115.829 20.8396 115.725 21.4016 115.497 21.9107C115.268 22.4218 114.964 22.8291 114.532 23.1865C114.124 23.5439 113.667 23.7994 113.108 23.9771C112.601 24.1548 112.068 24.2566 111.458 24.3085L111.458 24.3075ZM121.288 24.1798C121.493 23.0328 121.695 21.757 121.898 20.3794C122.101 18.9759 122.306 17.6492 122.457 16.3225C122.534 16.3225 122.634 16.3484 122.711 16.3484C122.813 16.3744 122.888 16.3744 122.94 16.4004C123.168 16.3484 123.319 16.3225 123.397 16.3225C123.981 17.5973 124.845 19.3841 126.014 21.7051C126.266 21.2459 126.496 20.7607 126.724 20.3025C126.979 19.8433 127.182 19.4341 127.361 19.0767C127.537 18.7193 127.74 18.2871 127.995 17.7759C128.247 17.2409 128.477 16.7557 128.68 16.3215C128.756 16.3215 128.933 16.3474 129.187 16.3994C129.289 16.3734 129.44 16.3474 129.644 16.3215C129.746 17.164 129.821 17.8778 129.875 18.4128C129.95 18.9479 130 19.5349 130.077 20.1738C130.152 20.7857 130.256 21.4236 130.331 22.0615C130.433 22.7243 130.508 23.4141 130.635 24.1788C130.331 24.1269 130.027 24.1029 129.696 24.1029C129.392 24.1029 129.086 24.1269 128.756 24.1788C128.756 23.7455 128.73 23.3113 128.68 22.878C128.655 22.4448 128.629 22.0615 128.577 21.756C128.553 21.4246 128.501 20.9654 128.452 20.3784C128.374 19.7914 128.325 19.2803 128.273 18.8471C127.36 20.6839 126.521 22.4458 125.759 24.1039H125.328C125.201 23.7984 124.972 23.3372 124.668 22.7263C124.362 22.1134 124.133 21.6292 123.982 21.3228C123.829 20.9923 123.627 20.584 123.398 20.0979C123.143 19.6137 122.967 19.2324 122.839 18.9499C122.764 19.461 122.686 20.0739 122.611 20.7617C122.533 21.4525 122.484 22.1144 122.432 22.7023C122.382 23.2883 122.356 23.7735 122.356 24.1808C122.255 24.1548 122.154 24.1548 122.102 24.1548C122.026 24.1288 121.951 24.1289 121.824 24.1059C121.569 24.1548 121.392 24.1808 121.289 24.1808L121.288 24.1798ZM132.694 24.1039V16.3225H137.037C137.011 16.4503 136.985 16.604 136.961 16.8336C136.985 16.9594 136.985 17.1131 137.037 17.3177C136.25 17.2159 135.487 17.166 134.776 17.166H134.42V19.5888H135.893C136.324 19.5888 136.706 19.5628 136.985 19.487C136.961 19.6147 136.961 19.7166 136.936 19.8174C136.936 19.8952 136.91 19.9721 136.91 20.049C136.936 20.1768 136.961 20.3544 136.985 20.5082C136.63 20.4303 136.172 20.3804 135.615 20.3804H134.42V23.2883C135.309 23.2883 136.172 23.2384 137.037 23.1366C137.011 23.3392 136.985 23.5189 136.961 23.6716C136.985 23.7994 137.011 23.9512 137.037 24.1049L132.694 24.1039ZM140.999 20.5321L138.687 16.3225C139.094 16.3484 139.422 16.3724 139.677 16.4004C140.058 16.3734 140.388 16.3484 140.694 16.3225L142.117 19.1026L143.817 16.3225C143.895 16.3225 143.996 16.3464 144.097 16.3464C144.225 16.3464 144.326 16.3464 144.376 16.3724C144.453 16.3464 144.555 16.3464 144.682 16.3464C144.809 16.3464 144.91 16.3225 144.96 16.3225L142.548 19.7645C143.69 21.8588 144.479 23.3372 144.91 24.1798C144.731 24.1538 144.402 24.1538 143.944 24.1039C143.462 24.1538 143.132 24.1538 142.93 24.1798L141.455 21.2459C140.897 22.1134 140.515 22.7013 140.287 23.0577C140.084 23.3891 139.881 23.7725 139.677 24.1548C139.627 24.1548 139.526 24.1288 139.398 24.1288C139.297 24.1288 139.196 24.1288 139.144 24.1049C139.094 24.1288 138.991 24.1288 138.84 24.1288C138.713 24.1548 138.611 24.1548 138.536 24.1548C138.788 23.8244 139.17 23.2634 139.703 22.4707C140.236 21.7061 140.67 21.0672 140.999 20.5321ZM147.069 16.3225C147.248 16.3464 147.526 16.3464 147.908 16.3984C148.29 16.3464 148.568 16.3464 148.747 16.3225V24.1798C148.441 24.1279 148.137 24.1039 147.856 24.1039C147.602 24.1039 147.349 24.1279 147.069 24.1798V16.3225ZM150.854 20.5052C150.88 19.3582 151.134 18.4637 151.643 17.8009C152.15 17.164 152.709 16.7038 153.395 16.4742C154.055 16.2446 154.69 16.1188 155.3 16.1188C155.859 16.1188 156.367 16.1947 156.798 16.3225C157.231 16.4243 157.536 16.5521 157.738 16.6799C157.637 16.9853 157.559 17.3936 157.458 17.8528H157.307C157.053 17.5214 156.772 17.2658 156.444 17.0881C156.112 16.9085 155.784 16.8066 155.429 16.8066C154.92 16.8066 154.463 16.9604 154.057 17.2399C153.65 17.5214 153.322 17.9047 153.092 18.4398C152.863 18.9749 152.76 19.5868 152.76 20.3275C152.76 20.9644 152.863 21.5264 153.066 22.0115C153.269 22.5227 153.575 22.904 153.98 23.1855C154.412 23.465 154.895 23.6187 155.478 23.6187C155.808 23.6187 156.164 23.5429 156.545 23.3891C156.927 23.2354 157.256 23.0318 157.511 22.7762L157.664 22.8281L157.409 23.8224C156.825 24.1538 156.089 24.3075 155.148 24.3075C154.488 24.3075 153.904 24.2057 153.37 24.0021C152.838 23.7964 152.38 23.5169 152 23.1855C151.644 22.8281 151.338 22.4208 151.161 21.9606C150.958 21.4755 150.854 21.0163 150.854 20.5052ZM51.5685 16.3225C51.7454 16.3484 52.0257 16.3484 52.4064 16.4004C52.787 16.3484 53.0673 16.3484 53.2442 16.3225V24.1798C52.9391 24.1298 52.6608 24.1039 52.3557 24.1039C52.1013 24.1039 51.8468 24.1298 51.5685 24.1798V16.3225ZM111.459 16.1188V16.7817C110.647 16.8336 110.037 17.189 109.632 17.8528C109.226 18.5676 109.022 19.46 109.022 20.583C109.022 21.2199 109.149 21.757 109.351 22.2162C109.554 22.6744 109.86 23.0328 110.214 23.2624C110.57 23.492 110.952 23.6187 111.359 23.6187H111.458V24.3075H111.334C110.776 24.3075 110.165 24.2057 109.506 23.9761C108.871 23.7465 108.312 23.3632 107.829 22.7772C107.346 22.1912 107.117 21.3996 107.092 20.4044C107.116 20.3524 107.116 20.3025 107.116 20.2506C107.142 19.7415 107.218 19.2564 107.397 18.7962C107.548 18.311 107.828 17.8778 108.158 17.4695C108.514 17.0622 108.971 16.7288 109.529 16.5002C110.062 16.2446 110.723 16.1168 111.458 16.1168L111.459 16.1188ZM56.039 24.1538V16.3225H57.182C57.5119 16.6799 57.8936 17.1131 58.3249 17.5743C58.7572 18.0325 59.1886 18.5157 59.6468 19.0028C60.0781 19.461 60.5104 19.9202 60.9169 20.3794C61.3224 20.8126 61.7041 21.2459 62.0857 21.6801V16.3235C62.1354 16.3235 62.211 16.3494 62.3143 16.3494C62.3899 16.3494 62.4654 16.3494 62.5171 16.3754C62.5668 16.3494 62.6423 16.3494 62.7457 16.3494C62.849 16.3494 62.9226 16.3235 63.0001 16.3235V24.1808L62.0341 24.1548C60.7649 22.7523 59.7988 21.6801 59.1637 20.9664C58.5028 20.2516 57.7663 19.461 56.9544 18.6195V24.1538C56.8778 24.1538 56.8013 24.1298 56.6999 24.1298C56.5727 24.1298 56.4972 24.1298 56.4455 24.1039C56.3948 24.1298 56.3441 24.1298 56.2417 24.1298C56.1652 24.1298 56.0897 24.1538 56.039 24.1538ZM65.5126 22.3679H65.7412C65.8167 22.7253 65.9937 23.0328 66.2501 23.2624C66.5025 23.492 66.8593 23.5928 67.3165 23.6187C67.6723 23.6187 68.0013 23.5169 68.2309 23.2873C68.4833 23.0837 68.6105 22.7782 68.6105 22.4468C68.6105 22.1154 68.5092 21.8349 68.2806 21.6043C68.052 21.3747 67.6723 21.1451 67.1376 20.9165C66.7063 20.7368 66.3505 20.5331 66.097 20.3295C65.8167 20.1238 65.614 19.8683 65.4629 19.5908C65.3099 19.2833 65.2323 18.9519 65.2323 18.5426C65.2323 18.1094 65.3337 17.7011 65.5385 17.3437C65.7154 16.9624 66.0205 16.6809 66.4011 16.4513C66.8066 16.2476 67.3155 16.1198 67.8999 16.1198C68.2289 16.1198 68.5598 16.1717 68.8908 16.2736C69.2198 16.3754 69.4752 16.5032 69.6521 16.6569C69.6004 16.8346 69.5507 17.0382 69.4752 17.2169C69.4235 17.4206 69.348 17.6003 69.2963 17.8039H69.1194C69.0419 17.5244 68.8908 17.2948 68.6622 17.0891C68.4336 16.9115 68.1792 16.8096 67.8234 16.8096C66.9855 16.8096 66.579 17.193 66.579 17.9576C66.579 18.3909 66.909 18.7732 67.5689 19.1046L68.4078 19.5139C69.0419 19.8194 69.4752 20.1768 69.7028 20.5591C69.9314 20.9684 70.0328 21.4016 70.0328 21.8608C70.0328 22.2681 69.9314 22.5995 69.7545 22.907C69.6014 23.2124 69.3748 23.468 69.0687 23.6976C68.7904 23.9012 68.4605 24.054 68.1037 24.1558C67.722 24.2596 67.3662 24.3095 66.9865 24.3095C66.2749 24.2836 65.6657 24.1318 65.1827 23.8254C65.3357 23.3143 65.4371 22.8291 65.5126 22.3699V22.3679ZM73.5382 24.1538V17.1391C72.7769 17.1391 72.0652 17.191 71.4043 17.3167C71.4043 17.2409 71.4043 17.165 71.4302 17.0612V16.603C71.4043 16.5012 71.4043 16.3994 71.4043 16.3215H77.2722C77.2463 16.5012 77.2225 16.6789 77.1946 16.8585C77.2215 17.0362 77.2463 17.19 77.2722 17.3167C76.3319 17.191 75.6472 17.1391 75.2138 17.1391V24.1538C75.1125 24.1538 74.9594 24.1298 74.7825 24.1298C74.5797 24.1298 74.4267 24.1298 74.3253 24.1039C74.2498 24.1298 74.1226 24.1298 73.9457 24.1298C73.7687 24.1298 73.6415 24.1538 73.5382 24.1538ZM79.3543 16.3225C79.5332 16.3484 79.8115 16.3484 80.1932 16.4004C80.549 16.3484 80.8521 16.3484 81.031 16.3225V24.1798C80.7269 24.1298 80.4227 24.1039 80.1425 24.1039C79.888 24.1039 79.6356 24.1298 79.3553 24.1798L79.3543 16.3225ZM85.2222 24.1538V17.1391C84.4589 17.1391 83.7492 17.189 83.0883 17.3167C83.0883 17.2409 83.0883 17.165 83.1142 17.0612V16.603C83.0883 16.4992 83.0883 16.3994 83.0883 16.3215H88.9293C88.9293 16.4992 88.9055 16.6789 88.8796 16.8566C88.9055 17.0362 88.9293 17.188 88.9293 17.3158C87.9901 17.188 87.3302 17.1381 86.8969 17.1381V24.1528C86.7955 24.1528 86.6444 24.1269 86.4665 24.1288C86.2637 24.1288 86.1107 24.1289 86.0093 24.1029C85.9318 24.1289 85.8066 24.1288 85.6277 24.1288C85.4488 24.1288 85.2977 24.1538 85.2222 24.1538ZM90.9876 21.196V16.3225C91.2938 16.3744 91.572 16.4004 91.8265 16.4004C92.0809 16.4004 92.385 16.3744 92.6901 16.3225V20.7118C92.6901 21.1181 92.716 21.5014 92.7915 21.8588C92.8432 22.1902 92.9446 22.4697 93.0718 22.6494C93.4515 23.2364 93.9852 23.5169 94.7226 23.5169C95.1023 23.5169 95.4342 23.465 95.6877 23.3372C95.9421 23.2364 96.1946 23.0328 96.3993 22.7513C96.6279 22.4458 96.7551 22.0625 96.8048 21.6292C96.8823 21.196 96.9082 20.7108 96.9082 20.1748V16.3225C96.9578 16.3225 97.0334 16.3225 97.1358 16.3484C97.2371 16.3484 97.3147 16.3484 97.3385 16.3744C97.3902 16.3484 97.4657 16.3484 97.5671 16.3484C97.6685 16.3484 97.7718 16.3225 97.8215 16.3225V20.4812C97.8215 21.1441 97.7718 21.731 97.6446 22.2152C97.5433 22.7023 97.3405 23.0837 97.0105 23.3891C96.8058 23.5928 96.5772 23.7465 96.3248 23.9002C96.0962 24.028 95.8417 24.1279 95.5356 24.2057C95.2066 24.2816 94.8508 24.3075 94.4434 24.3075C93.2497 24.3075 92.3353 24.0021 91.7022 23.3891C91.2172 22.8541 90.9876 22.1134 90.9876 21.196ZM101.96 24.1538V17.1391C101.199 17.1391 100.488 17.189 99.8262 17.3167C99.8262 17.2409 99.852 17.165 99.852 17.0612C99.852 16.9574 99.8779 16.9095 99.8779 16.8576C99.8779 16.8056 99.852 16.7298 99.852 16.604C99.852 16.5002 99.8262 16.4004 99.8262 16.3225H105.694C105.668 16.5022 105.644 16.6799 105.618 16.8595C105.644 17.0372 105.668 17.19 105.694 17.3177C104.755 17.19 104.069 17.1401 103.638 17.1401V24.1548C103.534 24.1548 103.383 24.1308 103.204 24.1308C103.002 24.1308 102.849 24.1308 102.747 24.1069C102.672 24.1308 102.544 24.1308 102.368 24.1308C102.191 24.1308 102.061 24.1538 101.96 24.1538Z" fill="white"/>
<path fill-rule="evenodd" clip-rule="evenodd" d="M304.8 21.7819V21.0682H305.841L304.825 18.4138L304.801 18.4897V16.2706L304.825 16.2206C304.902 16.2206 304.952 16.2446 305.03 16.2446H305.256C305.511 16.2446 305.664 16.2206 305.69 16.2206L308.864 24.1558C308.737 24.1558 308.56 24.1298 308.331 24.1298C308.129 24.1298 307.952 24.1298 307.823 24.1039C307.722 24.1298 307.57 24.1298 307.366 24.1298C307.162 24.1558 307.009 24.1558 306.907 24.1558C306.681 23.3652 306.4 22.5725 306.121 21.7819H304.8ZM310.718 16.3235C311.022 16.3494 311.302 16.3734 311.556 16.3993C311.581 16.3993 311.709 16.3734 311.911 16.3734C312.114 16.3494 312.291 16.3235 312.418 16.3235V23.2883C313.182 23.2883 314.044 23.2384 315.061 23.1366C315.009 23.2623 314.985 23.441 314.96 23.6457C314.985 23.7734 315.009 23.9272 315.035 24.1049H310.718V16.3235ZM288.773 20.5082C288.773 19.3602 289.025 18.4667 289.534 17.8039C290.043 17.167 290.626 16.7068 291.286 16.4772C291.946 16.2476 292.607 16.1198 293.218 16.1198C293.776 16.1198 294.259 16.1957 294.69 16.3235C295.122 16.4253 295.452 16.5531 295.631 16.6808C295.553 16.9863 295.452 17.3946 295.35 17.8538H295.223C294.971 17.5224 294.665 17.2678 294.335 17.0891C294.005 16.9094 293.675 16.8076 293.319 16.8076C292.812 16.8076 292.354 16.9613 291.947 17.2429C291.542 17.5224 291.236 17.9057 291.008 18.4418C290.78 18.9768 290.652 19.5898 290.652 20.3295C290.652 20.9683 290.754 21.5294 290.956 22.0135C291.161 22.5246 291.463 22.906 291.897 23.1875C292.302 23.469 292.811 23.6207 293.394 23.6207C293.724 23.6207 294.08 23.5448 294.462 23.3911C294.842 23.2394 295.148 23.0357 295.401 22.7802L295.58 22.8301L295.3 23.8254C294.741 24.1588 293.979 24.3105 293.064 24.3105C292.406 24.3105 291.795 24.2087 291.263 24.005C290.728 23.7994 290.271 23.5199 289.916 23.1885C289.534 22.8311 289.254 22.4238 289.051 21.9646C288.874 21.4795 288.773 21.0203 288.773 20.5101V20.5082ZM304.8 16.2726V18.4917L303.759 21.0702H304.8V21.7839H303.453C303.402 21.9117 303.326 22.1673 303.173 22.5745C303.02 22.9579 302.919 23.2633 302.843 23.4949C302.768 23.7225 302.69 23.9272 302.64 24.1578C302.589 24.1578 302.487 24.1318 302.36 24.1318C302.233 24.1318 302.157 24.1318 302.082 24.1059C302.03 24.1318 301.955 24.1318 301.825 24.1318C301.725 24.1578 301.649 24.1578 301.598 24.1578L304.8 16.2726ZM297.917 16.3245C298.095 16.3504 298.374 16.3504 298.754 16.4003C299.136 16.3504 299.416 16.3504 299.593 16.3245V24.1817C299.289 24.1318 299.009 24.1059 298.705 24.1059C298.45 24.1059 298.198 24.1318 297.918 24.1817L297.917 16.3245Z" fill="white"/>
<path fill-rule="evenodd" clip-rule="evenodd" d="M190.639 32.631V32.088H191.411L190.639 30.1214V28.4912C190.69 28.4912 190.742 28.4912 190.793 28.5172H190.947C191.152 28.5172 191.256 28.4912 191.282 28.4912L193.651 34.3909C193.548 34.365 193.419 34.365 193.24 34.365C193.086 34.365 192.956 34.365 192.879 34.339C192.801 34.365 192.699 34.365 192.543 34.365C192.387 34.365 192.26 34.365 192.184 34.3909C192.002 33.796 191.822 33.226 191.591 32.631H190.639ZM194.426 28.5681C194.658 28.5941 194.864 28.5941 195.069 28.62C195.069 28.62 195.147 28.62 195.301 28.5941C195.455 28.5941 195.584 28.5681 195.687 28.5681V33.7441C196.254 33.7441 196.898 33.6922 197.644 33.6143C197.619 33.7161 197.593 33.8469 197.567 34.0026C197.593 34.1064 197.619 34.2093 197.619 34.339H194.425L194.426 28.5681ZM190.639 28.5422V30.1723L189.864 32.087L190.639 32.088V32.631L189.633 32.63C189.581 32.7079 189.529 32.9145 189.427 33.199C189.324 33.4845 189.221 33.7161 189.17 33.8988C189.118 34.0535 189.066 34.2093 189.016 34.3899C188.99 34.364 188.912 34.364 188.81 34.364C188.732 34.364 188.656 34.364 188.604 34.338C188.578 34.364 188.501 34.364 188.424 34.364C188.348 34.364 188.295 34.364 188.244 34.3899L190.639 28.5422ZM176.187 34.4938V33.9747C176.65 33.9747 177.011 33.8209 177.268 33.5364C177.552 33.225 177.731 32.8626 177.861 32.4493C177.965 32.0361 178.015 31.6477 178.015 31.2844C178.015 30.8192 177.938 30.4049 177.81 30.0695C177.656 29.7071 177.448 29.4226 177.191 29.215C176.932 29.0083 176.624 28.9045 176.263 28.9045H176.237C176.237 28.9305 176.211 28.9305 176.186 28.9305V28.4134H176.211C176.752 28.4134 177.215 28.4912 177.628 28.6719C178.041 28.8267 178.376 29.0353 178.634 29.3178C178.917 29.6033 179.097 29.9138 179.226 30.2761C179.355 30.6385 179.434 31.0258 179.434 31.4401C179.434 31.9332 179.355 32.3465 179.174 32.7089C179.02 33.0972 178.763 33.4067 178.48 33.6672C178.17 33.9248 177.811 34.1064 177.424 34.2622C177.036 34.3909 176.624 34.4678 176.187 34.4938ZM179.897 31.6737C179.923 30.8192 180.103 30.1464 180.463 29.6812C180.849 29.188 181.287 28.8526 181.778 28.6709C182.267 28.5152 182.73 28.4124 183.194 28.4124C183.606 28.4124 183.969 28.4643 184.303 28.5671C184.612 28.645 184.843 28.7478 184.997 28.8516C184.946 29.0583 184.868 29.3707 184.792 29.7061H184.688C184.508 29.4476 184.277 29.2649 184.044 29.1371C183.785 29.0063 183.553 28.9285 183.27 28.9285C182.909 28.9285 182.575 29.0333 182.266 29.2389C181.957 29.4476 181.726 29.758 181.544 30.1454C181.39 30.5327 181.286 30.9989 181.286 31.5429C181.286 32.0081 181.364 32.4224 181.518 32.7837C181.674 33.1721 181.905 33.4556 182.215 33.6642C182.524 33.8699 182.883 33.9727 183.322 33.9727C183.579 33.9727 183.837 33.9208 184.122 33.8189C184.405 33.6902 184.637 33.5344 184.816 33.3518L184.946 33.4037L184.74 34.1294C184.328 34.3879 183.76 34.4918 183.091 34.4918C182.602 34.4918 182.139 34.4139 181.751 34.2592C181.365 34.1294 181.031 33.9218 180.748 33.6642C180.464 33.3787 180.259 33.0942 180.129 32.7318C179.975 32.3954 179.898 32.0341 179.898 31.6717L179.897 31.6737ZM186.106 28.5681C186.235 28.5681 186.44 28.5941 186.724 28.62C187.007 28.5941 187.213 28.5681 187.342 28.5681V34.3899C187.136 34.364 186.905 34.338 186.698 34.338C186.491 34.338 186.311 34.364 186.106 34.3899V28.5681ZM176.186 28.4134V28.9305C175.567 28.9564 175.129 29.215 174.821 29.7081C174.512 30.2252 174.358 30.898 174.358 31.7266C174.384 32.1908 174.461 32.6061 174.615 32.9415C174.769 33.2779 175.002 33.5374 175.259 33.7171C175.519 33.8998 175.801 33.9757 176.11 33.9757H176.188V34.4948H176.084C175.673 34.4948 175.208 34.4169 174.745 34.2622C174.256 34.0815 173.843 33.797 173.481 33.3557C173.146 32.9165 172.966 32.3475 172.941 31.5978C172.966 31.5719 172.966 31.52 172.966 31.494C172.966 31.1047 173.044 30.7423 173.174 30.4069C173.301 30.0445 173.483 29.7091 173.741 29.4246C173.998 29.1132 174.333 28.8806 174.745 28.6989C175.158 28.5182 175.621 28.4403 176.188 28.4144L176.186 28.4134ZM162.918 34.339V33.77C163.847 33.5374 164.31 32.7079 164.31 31.3103C164.31 30.4828 164.13 29.9138 163.769 29.5783C163.538 29.3438 163.254 29.215 162.918 29.1391V28.5691H163.15C163.589 28.5691 164.027 28.6729 164.413 28.8796C164.8 29.0603 165.11 29.3727 165.367 29.786C165.599 30.1993 165.728 30.6914 165.728 31.2594C165.728 31.8274 165.599 32.3725 165.367 32.8386C165.11 33.3038 164.748 33.6932 164.285 33.9517C163.899 34.1583 163.435 34.2881 162.919 34.34L162.918 34.339ZM169.204 33.0443C169.282 33.3288 169.411 33.5374 169.591 33.7161C169.797 33.8708 170.054 33.9747 170.389 33.9747C170.673 33.9747 170.904 33.8988 171.084 33.7431C171.266 33.5883 171.341 33.3538 171.341 33.0952C171.341 32.8626 171.266 32.656 171.11 32.5002C170.93 32.3196 170.647 32.1638 170.26 31.9831C169.925 31.8534 169.668 31.6986 169.488 31.5439C169.282 31.3872 169.127 31.2065 169.023 30.9999C168.894 30.7673 168.843 30.5087 168.843 30.1983C168.843 29.8878 168.92 29.6033 169.049 29.3178C169.203 29.0593 169.41 28.8267 169.718 28.6719C170.028 28.5162 170.388 28.4134 170.826 28.4134C171.057 28.4134 171.317 28.4653 171.548 28.5422C171.806 28.62 171.986 28.6979 172.141 28.8267C172.089 28.9564 172.037 29.0852 171.987 29.2399C171.935 29.3707 171.909 29.5244 171.857 29.6552H171.728C171.676 29.4486 171.548 29.2918 171.393 29.1381C171.211 29.0073 171.006 28.9295 170.774 28.9295C170.156 28.9295 169.847 29.214 169.847 29.784C169.847 30.0944 170.078 30.3789 170.567 30.6375L171.211 30.948C171.676 31.1546 171.986 31.4151 172.165 31.7256C172.319 32.0101 172.397 32.3206 172.397 32.6819C172.397 32.9664 172.319 33.225 172.217 33.4576C172.088 33.6922 171.908 33.8708 171.702 34.0266C171.469 34.1833 171.237 34.3121 170.954 34.3899C170.696 34.4678 170.413 34.4938 170.156 34.4938C169.614 34.4938 169.178 34.364 168.79 34.1314C168.919 33.769 168.996 33.4057 169.048 33.0443H169.204ZM162.918 28.5691V29.1391C162.764 29.0862 162.583 29.0593 162.404 29.0593H161.528V33.8469H162.3C162.532 33.8469 162.738 33.8219 162.918 33.77V34.339L160.291 34.338V28.5671H162.918V28.5691ZM156.426 32.631V32.088H157.201L156.452 30.1214L156.426 30.1733V28.5432L156.452 28.4912C156.505 28.4912 156.556 28.4912 156.608 28.5172H156.762C156.941 28.5172 157.071 28.4912 157.097 28.4912L159.442 34.3909C159.338 34.365 159.21 34.365 159.056 34.365C158.902 34.365 158.772 34.365 158.669 34.339C158.591 34.365 158.489 34.365 158.334 34.365C158.179 34.365 158.076 34.365 157.999 34.3909C157.819 33.796 157.612 33.227 157.406 32.631H156.426ZM156.426 28.5432V30.1733L155.654 32.087L156.426 32.088V32.631L155.423 32.63C155.397 32.7079 155.319 32.9155 155.217 33.2C155.113 33.4845 155.037 33.7171 154.985 33.8978C154.908 34.0525 154.882 34.2083 154.831 34.3889C154.78 34.363 154.702 34.363 154.626 34.363C154.522 34.363 154.469 34.363 154.418 34.337C154.368 34.363 154.316 34.363 154.238 34.363C154.135 34.363 154.084 34.363 154.032 34.3889L156.427 28.5412L156.426 28.5432ZM150.734 34.339V33.77C151.661 33.5374 152.126 32.7079 152.126 31.3123C152.126 30.4838 151.944 29.9148 151.584 29.5783C151.353 29.3458 151.069 29.216 150.734 29.1391V28.5701H150.966C151.403 28.5701 151.842 28.6739 152.229 28.8806C152.615 29.0602 152.924 29.3717 153.181 29.786C153.413 30.1993 153.516 30.6914 153.516 31.2594C153.516 31.8274 153.413 32.3725 153.156 32.8396C152.924 33.3048 152.563 33.6932 152.099 33.9517C151.712 34.1583 151.249 34.2871 150.734 34.339ZM150.734 28.5701V29.1391C150.58 29.0872 150.4 29.0603 150.194 29.0603H149.343V33.8479H150.115C150.349 33.8479 150.553 33.8219 150.734 33.77V34.339H148.106V28.5701H150.734ZM141.975 32.7089V31.2355C142.413 31.1047 142.644 30.7184 142.644 30.1224C142.644 29.8119 142.593 29.5793 142.515 29.4246C142.412 29.2699 142.284 29.1641 142.128 29.1132C142.078 29.0892 142.024 29.0892 141.974 29.0612V28.5711H142.153C142.567 28.5711 142.85 28.5951 143.056 28.6749C143.236 28.7528 143.417 28.8546 143.596 29.0373C143.828 29.2429 143.931 29.5544 143.931 29.9427C143.931 30.4079 143.802 30.7703 143.546 31.0029C143.263 31.2374 142.979 31.4181 142.619 31.496C142.825 31.8324 143.005 32.1169 143.16 32.3755C143.34 32.634 143.572 32.9974 143.855 33.4376C144.139 33.9028 144.346 34.2133 144.448 34.3939C144.165 34.368 143.931 34.342 143.7 34.342C143.468 34.342 143.211 34.368 142.928 34.3939C142.748 34.1094 142.567 33.773 142.335 33.3577C142.206 33.1251 142.078 32.8926 141.974 32.7109L141.975 32.7089ZM145.35 28.5701C145.479 28.5701 145.685 28.5941 145.969 28.622C146.252 28.5951 146.458 28.5701 146.587 28.5701V34.3909C146.379 34.365 146.148 34.339 145.942 34.339C145.736 34.339 145.556 34.365 145.35 34.3909V28.5701ZM141.975 28.5701V29.0603C141.872 29.0363 141.742 29.0363 141.614 29.0363H141.305V31.3133H141.51C141.69 31.3133 141.845 31.2874 141.975 31.2355V32.7089C141.923 32.6051 141.845 32.5022 141.794 32.3984C141.664 32.1658 141.51 31.9332 141.356 31.6747H141.305V34.3909C141.073 34.365 140.841 34.339 140.686 34.339C140.507 34.339 140.3 34.365 140.042 34.3909V28.5701L141.974 28.5711L141.975 28.5701ZM136.282 32.631V32.088H137.054L136.307 30.1214L136.282 30.1733V28.5432L136.307 28.4912C136.359 28.4912 136.411 28.4912 136.461 28.5172H136.615C136.795 28.5172 136.899 28.4912 136.95 28.4912L139.295 34.3909C139.192 34.365 139.063 34.365 138.909 34.365C138.755 34.365 138.626 34.365 138.524 34.339C138.446 34.365 138.344 34.365 138.189 34.365C138.034 34.365 137.931 34.365 137.853 34.3909C137.673 33.796 137.467 33.227 137.261 32.631H136.282ZM136.282 28.5432V30.1733L135.507 32.087L136.282 32.088V32.631L135.276 32.63C135.25 32.7079 135.172 32.9155 135.07 33.2C134.967 33.4845 134.89 33.7171 134.838 33.8978C134.761 34.0525 134.735 34.2083 134.684 34.3889C134.633 34.363 134.556 34.363 134.479 34.363C134.375 34.363 134.325 34.363 134.273 34.337C134.221 34.363 134.17 34.363 134.093 34.363C133.99 34.363 133.939 34.363 133.885 34.3889L136.283 28.5412L136.282 28.5432ZM130.588 34.339V33.77C131.514 33.5374 131.978 32.7079 131.978 31.3123C131.978 30.4838 131.799 29.9148 131.439 29.5783C131.206 29.3458 130.923 29.216 130.589 29.1391V28.5701H130.82C131.259 28.5701 131.697 28.6739 132.083 28.8806C132.47 29.0602 132.778 29.3717 133.01 29.786C133.267 30.1993 133.37 30.6914 133.37 31.2594C133.37 31.8274 133.267 32.3725 133.01 32.8396C132.778 33.3048 132.417 33.6932 131.954 33.9517C131.567 34.1583 131.103 34.2881 130.589 34.34L130.588 34.339ZM130.589 28.5701V29.1391C130.435 29.0872 130.253 29.0603 130.047 29.0603H129.197V33.8479H129.969C130.201 33.8479 130.407 33.8219 130.588 33.77V34.339H127.935V28.5701H130.589ZM116.701 34.4948V33.9777C117.166 33.9777 117.526 33.8229 117.784 33.5384C118.067 33.228 118.247 32.8666 118.376 32.4513C118.479 32.0381 118.53 31.6497 118.53 31.2874C118.53 30.8222 118.452 30.4069 118.298 30.0705C118.169 29.7081 117.963 29.4236 117.706 29.217C117.449 29.0083 117.139 28.9065 116.778 28.9065H116.754C116.754 28.9305 116.727 28.9305 116.701 28.9305V28.4134H116.727C117.269 28.4134 117.733 28.4912 118.144 28.6739C118.556 28.8287 118.891 29.0363 119.15 29.3208C119.433 29.6053 119.613 29.9158 119.742 30.2771C119.872 30.6395 119.948 31.0268 119.948 31.4421C119.948 31.9332 119.871 32.3475 119.691 32.7089C119.537 33.0972 119.279 33.4067 118.996 33.6672C118.686 33.9258 118.325 34.1064 117.939 34.2622C117.553 34.3909 117.14 34.4688 116.701 34.4948ZM120.876 28.5701C121.108 28.5941 121.313 28.5941 121.495 28.622C121.521 28.622 121.598 28.622 121.752 28.5951C121.906 28.5951 122.035 28.5711 122.138 28.5711V33.7451C122.704 33.7451 123.349 33.6932 124.096 33.6153C124.07 33.7191 124.044 33.8479 124.018 34.0036C124.044 34.1074 124.07 34.2103 124.07 34.34H120.876V28.5701ZM125.203 28.5701C125.333 28.5701 125.539 28.5941 125.822 28.622C126.105 28.5951 126.311 28.5701 126.44 28.5701V34.3909C126.234 34.365 126.003 34.339 125.796 34.339C125.589 34.339 125.41 34.365 125.203 34.3909V28.5701ZM116.701 28.4134V28.9305C116.083 28.9564 115.646 29.216 115.337 29.7081C115.028 30.2252 114.871 30.898 114.871 31.7266C114.898 32.1918 114.975 32.6061 115.131 32.9415C115.285 33.2779 115.517 33.5374 115.775 33.7191C116.032 33.8998 116.316 33.9777 116.625 33.9777H116.701V34.4948H116.599C116.187 34.4948 115.723 34.4169 115.26 34.2622C114.771 34.0815 114.358 33.797 113.997 33.3557C113.662 32.9175 113.482 32.3475 113.456 31.5978C113.482 31.5719 113.482 31.52 113.482 31.494C113.482 31.1047 113.56 30.7423 113.688 30.4069C113.816 30.0445 113.997 29.7091 114.254 29.4246C114.512 29.1132 114.848 28.8816 115.26 28.6989C115.672 28.5182 116.136 28.4403 116.702 28.4144L116.701 28.4134ZM95.963 34.339V33.77C96.8913 33.5374 97.3544 32.7079 97.3544 31.3123C97.3544 30.4838 97.1745 29.9148 96.8396 29.5783C96.5822 29.3458 96.2989 29.216 95.963 29.1391V28.5701H96.1945C96.6597 28.5701 97.0712 28.6739 97.4578 28.8806C97.8454 29.0602 98.1803 29.3717 98.4119 29.786C98.6435 30.1993 98.7727 30.6914 98.7727 31.2594C98.7727 31.8274 98.6445 32.3725 98.4119 32.8396C98.1545 33.3048 97.8185 33.6932 97.3296 33.9517C96.9429 34.1583 96.5056 34.2881 95.964 34.34L95.963 34.339ZM103.46 31.9592C103.306 31.6747 103.151 31.3902 102.997 31.1306C102.868 30.8461 102.688 30.5357 102.532 30.2003C102.353 29.8638 102.171 29.5534 102.043 29.2699C101.889 28.9854 101.759 28.7528 101.656 28.5721C101.913 28.5961 102.171 28.624 102.428 28.624C102.686 28.624 102.945 28.5971 103.151 28.5721C103.254 28.7268 103.356 28.9325 103.46 29.193C103.588 29.4516 103.691 29.6842 103.821 29.9427C103.95 30.1753 104.052 30.3819 104.131 30.5636C104.206 30.7443 104.311 30.927 104.412 31.1067C104.516 30.9769 104.645 30.7703 104.748 30.5636C104.876 30.331 104.979 30.0984 105.083 29.8918C105.186 29.6852 105.289 29.4526 105.418 29.1421C105.547 28.8566 105.649 28.649 105.675 28.5731C105.855 28.5971 105.984 28.625 106.063 28.625C106.164 28.625 106.32 28.5981 106.5 28.5731C106.447 28.7009 106.32 28.9095 106.138 29.194C105.984 29.5045 105.803 29.8149 105.598 30.1503C105.418 30.4868 105.263 30.7713 105.134 31.0039C105.005 31.2384 104.877 31.497 104.723 31.7555V34.3939C104.671 34.3939 104.567 34.3939 104.413 34.368C104.259 34.368 104.156 34.368 104.078 34.342C103.872 34.368 103.667 34.3939 103.46 34.3939V31.9592ZM109.591 33.0453H109.745C109.823 33.3308 109.951 33.5384 110.132 33.7191C110.337 33.8738 110.597 33.9777 110.931 33.9777C111.214 33.9777 111.42 33.8998 111.625 33.7451C111.805 33.5903 111.883 33.3558 111.883 33.0972C111.883 32.8656 111.805 32.658 111.651 32.5022C111.471 32.3216 111.188 32.1658 110.775 31.9851C110.468 31.8554 110.208 31.7006 110.028 31.5459C109.823 31.3912 109.668 31.2085 109.565 31.0019C109.436 30.7693 109.385 30.5107 109.385 30.2003C109.385 29.8898 109.463 29.6053 109.591 29.3208C109.745 29.0602 109.952 28.8297 110.26 28.6739C110.543 28.5172 110.931 28.4134 111.368 28.4134C111.6 28.4134 111.857 28.4653 112.063 28.5422C112.32 28.621 112.5 28.6979 112.655 28.8277C112.603 28.9554 112.552 29.0862 112.501 29.2399C112.449 29.3707 112.424 29.5254 112.373 29.6552H112.244C112.192 29.4486 112.064 29.2928 111.935 29.1381C111.755 29.0073 111.549 28.9295 111.316 28.9295C110.698 28.9295 110.388 29.215 110.388 29.784C110.388 30.0944 110.62 30.3789 111.111 30.6375L111.755 30.949C112.192 31.1546 112.501 31.4141 112.656 31.7246C112.838 32.0091 112.914 32.3196 112.914 32.6809C112.914 32.9664 112.838 33.225 112.735 33.4586C112.604 33.6912 112.425 33.8718 112.218 34.0276C111.986 34.1823 111.781 34.3121 111.497 34.3899C111.24 34.4678 110.957 34.4938 110.699 34.4938C110.158 34.4938 109.719 34.364 109.334 34.1314C109.463 33.769 109.539 33.4067 109.591 33.0453ZM95.963 28.5701V29.1391C95.8089 29.0872 95.6271 29.0603 95.4472 29.0603H94.5715V33.8479H95.3438C95.5754 33.8479 95.7821 33.8219 95.963 33.77V34.339H93.3342V28.5701H95.963ZM89.47 32.633V32.09H90.2442L89.4978 30.1214L89.471 30.1733V28.5442L89.4978 28.4912C89.5475 28.4912 89.6012 28.4912 89.6509 28.5172H89.8069C89.9858 28.5172 90.116 28.4912 90.1419 28.4912L92.4864 34.3909C92.383 34.365 92.2548 34.365 92.1008 34.365C91.9467 34.365 91.8165 34.365 91.7132 34.339C91.6357 34.365 91.5333 34.365 91.3782 34.365C91.2232 34.365 91.1208 34.365 91.0433 34.3909C90.8634 33.796 90.6567 33.227 90.4509 32.633H89.47ZM89.47 28.5452V30.1743L88.6977 32.091L89.47 32.09V32.633L88.4662 32.634C88.4403 32.7119 88.3628 32.9185 88.2604 33.203C88.1571 33.4875 88.0806 33.7201 88.0289 33.9028C87.9772 34.0575 87.9255 34.2113 87.8748 34.3929C87.8231 34.367 87.7446 34.367 87.6691 34.367C87.5657 34.367 87.513 34.367 87.4634 34.341C87.4107 34.367 87.36 34.367 87.2815 34.367C87.203 34.367 87.1274 34.367 87.1016 34.3929L89.471 28.5461L89.47 28.5452ZM83.7781 34.34V33.771C84.7044 33.5384 85.1695 32.7109 85.1695 31.3133C85.1695 30.4848 84.9876 29.9158 84.6278 29.5793C84.3962 29.3468 84.113 29.217 83.7781 29.1401V28.5711H84.0096C84.4469 28.5711 84.8852 28.6749 85.2729 28.8816C85.6575 29.0612 85.9676 29.3727 86.225 29.787C86.4566 30.2003 86.5858 30.6934 86.5858 31.2624C86.5599 31.8574 86.4576 32.3745 86.2001 32.8416C85.9686 33.3068 85.6068 33.6952 85.1427 33.9547C84.756 34.1603 84.2929 34.2881 83.7781 34.34ZM83.7781 28.5711V29.1401C83.624 29.0882 83.4431 29.0612 83.2364 29.0612H82.3866V33.8489H83.1589C83.3924 33.8489 83.5982 33.8229 83.7781 33.771V34.34H81.1493V28.5711H83.7781ZM75.019 32.7109V31.2355C75.4553 31.1067 75.6879 30.7184 75.6879 30.1224C75.6879 29.8119 75.6362 29.5793 75.5587 29.4246C75.4544 29.2699 75.3271 29.1661 75.1969 29.1142C75.1472 29.0882 75.0697 29.0882 75.018 29.0612V28.5711H75.1969C75.6104 28.5711 75.8936 28.5951 76.0994 28.6749C76.2793 28.7528 76.4602 28.8556 76.64 29.0373C76.8716 29.2439 77.0008 29.5544 77.0008 29.9427C77.0008 30.4079 76.8468 30.7713 76.5894 31.0039C76.3319 31.2365 76.0228 31.4171 75.6631 31.495C75.8688 31.8314 76.0497 32.1159 76.2296 32.3745C76.3836 32.635 76.6152 32.9964 76.8985 33.4366C77.1817 33.9038 77.3894 34.2123 77.4918 34.3929C77.2324 34.367 76.975 34.341 76.7434 34.341C76.5118 34.341 76.2544 34.367 75.9712 34.3929C75.7913 34.1084 75.6104 33.772 75.3788 33.3567C75.2496 33.1251 75.1214 32.8926 75.018 32.7119L75.019 32.7109ZM78.3932 28.5711C78.5224 28.5711 78.7282 28.5951 79.0124 28.623C79.2957 28.5961 79.5004 28.5711 79.6306 28.5711V34.3919C79.4229 34.366 79.1913 34.34 78.9856 34.34C78.8057 34.34 78.599 34.366 78.3932 34.3919V28.5711ZM51.6789 33.0463C51.7305 33.3318 51.8587 33.5394 52.0645 33.7201C52.2454 33.8748 52.5028 33.9787 52.8377 33.9787C53.121 33.9787 53.3535 33.9028 53.5334 33.7461C53.7133 33.5913 53.8167 33.3567 53.8167 33.0992C53.8167 32.8666 53.7382 32.66 53.5583 32.5032C53.4042 32.3226 53.12 32.1668 52.7085 31.9881C52.3994 31.8574 52.142 31.7026 51.9353 31.5469C51.7295 31.3922 51.5745 31.2105 51.4711 31.0039C51.3678 30.7713 51.3161 30.5107 51.3161 30.2013C51.3161 29.8918 51.3678 29.6063 51.5228 29.3218C51.651 29.0612 51.8836 28.8307 52.1659 28.6749C52.4749 28.5202 52.8357 28.4144 53.274 28.4144C53.5314 28.4144 53.764 28.4663 54.0214 28.5452C54.253 28.623 54.4597 28.6999 54.5879 28.8297C54.5372 28.9574 54.5104 29.0882 54.4587 29.2429C54.407 29.3717 54.3554 29.5274 54.3295 29.6562H54.2003C54.1228 29.4496 54.0204 29.2938 53.8395 29.1391C53.6855 29.0093 53.4798 28.9325 53.2213 28.9325C52.6032 28.9325 52.2941 29.217 52.2941 29.786C52.2941 30.0974 52.5515 30.3809 53.0415 30.6405L53.6597 30.951C54.1238 31.1576 54.4329 31.4161 54.6128 31.7266C54.7937 32.0111 54.8702 32.3216 54.8702 32.6849C54.8702 32.9694 54.7927 33.228 54.6635 33.4606C54.5353 33.6932 54.3544 33.8738 54.1486 34.0296C53.9429 34.1863 53.6855 34.3141 53.4271 34.3919C53.1438 34.4698 52.8854 34.4958 52.6032 34.4958C52.0883 34.4958 51.6242 34.366 51.2634 34.1334C51.3668 33.771 51.4433 33.4097 51.495 33.0463H51.6789ZM75.02 28.5711V29.0612C74.9167 29.0373 74.7865 29.0373 74.6583 29.0373H74.3492V31.3143H74.5549C74.7348 31.3143 74.8898 31.2884 75.02 31.2365V32.7119C74.9674 32.6071 74.8898 32.5032 74.8382 32.4004C74.7089 32.1678 74.5807 31.9352 74.4267 31.6767H74.3492V34.3929C74.1176 34.367 73.886 34.341 73.731 34.341C73.5511 34.341 73.3453 34.367 73.0859 34.3929V28.5721L75.02 28.5711ZM55.8005 34.34V28.5711H59.0206C58.9948 28.649 58.9689 28.7777 58.9431 28.9574C58.9689 29.0363 58.9938 29.1661 58.9938 29.2948C58.4273 29.217 57.8608 29.191 57.3459 29.191H57.0617V31.0029H58.144C58.479 31.0029 58.7622 30.9759 58.9679 30.925C58.9679 31.0029 58.9421 31.0787 58.9421 31.1576C58.9421 31.2095 58.9163 31.2864 58.9163 31.3123C58.9421 31.4421 58.9421 31.5449 58.9679 31.6747C58.7105 31.6228 58.3498 31.5968 57.9373 31.5968H57.0617V33.7441C57.7316 33.7441 58.3756 33.6922 59.0196 33.6143C58.9938 33.769 58.9679 33.8998 58.9421 34.0026C58.9679 34.1064 58.9928 34.2093 58.9928 34.339H55.7985L55.8005 34.34ZM59.7163 31.6238C59.7163 31.2365 59.768 30.8741 59.8972 30.4848C60.0006 30.1224 60.1795 29.787 60.4637 29.4765C60.7211 29.1661 61.0829 28.9075 61.5461 28.7268C61.9834 28.5462 62.526 28.4413 63.1691 28.4154C63.9413 28.4154 64.638 28.5961 65.2304 28.9345C65.1787 29.0622 65.127 29.219 65.0763 29.3997C65.0246 29.5803 64.9988 29.7101 64.9729 29.787H64.8696C64.6638 29.4765 64.4044 29.2699 64.0953 29.1411C63.8121 29.0113 63.503 28.9345 63.1939 28.9345C62.8848 28.9345 62.6274 28.9864 62.369 29.1152C62.1116 29.2449 61.88 29.4256 61.7001 29.6582C61.5202 29.8908 61.3652 30.1753 61.2628 30.5117C61.1594 30.8491 61.1078 31.2115 61.0829 31.6507C61.0829 32.1159 61.1863 32.5302 61.3403 32.8936C61.5202 33.23 61.7518 33.5145 62.035 33.7211C62.3451 33.9038 62.6542 34.0056 63.015 34.0316C63.3758 34.0056 63.7356 33.9277 64.0705 33.7471V31.7545C64.3021 31.8065 64.5078 31.8065 64.6897 31.8065C64.8954 31.8065 65.1011 31.8065 65.3337 31.7545V34.1094C64.5356 34.368 63.7872 34.4968 63.0667 34.4968C62.6801 34.4968 62.2944 34.4448 61.881 34.342C61.4944 34.2642 61.1336 34.0835 60.7987 33.8768C60.4637 33.6442 60.2063 33.3338 60.0006 32.9714C59.8197 32.5821 59.7163 32.1429 59.7163 31.6258V31.6238ZM66.6456 32.1668V28.5711C66.8792 28.5951 67.0849 28.623 67.2648 28.623C67.4706 28.623 67.6763 28.5961 67.9089 28.5711V31.8304C67.9089 32.1409 67.9347 32.3994 67.9864 32.659C68.038 32.9435 68.0897 33.1242 68.1921 33.2799C68.4754 33.6932 68.8868 33.9258 69.4036 33.9258C69.7127 33.9258 69.9443 33.8738 70.15 33.771C70.3299 33.6932 70.5108 33.5384 70.6649 33.3318C70.8189 33.0992 70.9223 32.8406 70.975 32.5032C71.0246 32.1668 71.0525 31.8314 71.0525 31.4431V28.5711C71.0763 28.5711 71.128 28.5711 71.2065 28.5951H71.5415C71.619 28.5711 71.6707 28.5711 71.7214 28.5711V31.6497C71.7214 32.1668 71.6697 32.5801 71.5922 32.9445C71.5146 33.3068 71.3606 33.5913 71.127 33.798C70.9481 33.9547 70.7921 34.0825 70.6122 34.1873C70.4323 34.2891 70.2514 34.367 70.0198 34.4189C69.7883 34.4708 69.5309 34.4968 69.2218 34.4968C68.3193 34.4968 67.6494 34.2642 67.1863 33.799C66.8255 33.4116 66.6446 32.8686 66.6446 32.1688L66.6456 32.1668Z" fill="white"/>
<path fill-rule="evenodd" clip-rule="evenodd" d="M26.2833 12.3364C26.2336 12.587 26.0339 13.2159 26.0587 14.0684C26.0836 14.9199 26.4583 15.8233 26.6332 16.2246C27.9073 18.7323 28.931 20.2885 29.581 23.1236C30.0303 25.0792 30.2807 26.2351 30.1803 28.2416C30.1296 28.8945 30.1048 29.2459 29.9796 29.8718C29.6049 27.1625 29.1805 25.6072 28.131 23.0727C27.5316 21.6172 27.1321 20.8386 26.3579 19.4849C25.7586 18.4308 24.0103 16.023 23.8106 15.7225C23.5353 15.2953 23.1357 14.4677 23.1854 13.8917C23.2351 13.1131 23.5353 12.7377 24.1843 12.1597C25.8073 10.8301 27.5316 9.60121 28.8555 8.39731C28.8813 8.39731 26.509 11.3831 26.2833 12.3364Z" fill="white"/>
<path fill-rule="evenodd" clip-rule="evenodd" d="M22.9111 28.5441C23.0115 29.6981 22.7113 30.927 22.3864 31.5539C22.1866 31.9811 21.9123 32.4593 21.5376 32.7588C21.2623 32.9594 20.8379 33.1601 20.4642 33.2609C19.4902 33.4865 18.865 33.0862 18.39 33.0343C17.7161 32.9335 17.091 33.1102 16.8415 33.2349C16.442 33.4616 15.9421 33.9128 15.2185 33.8629C14.7186 33.8129 14.2694 33.5614 13.9444 33.2349C13.9692 33.9128 14.2942 34.3889 14.9681 34.7403C15.1927 34.8411 15.6419 34.8911 16.0673 34.7902C16.3177 34.7154 16.5165 34.4388 16.9419 34.3889C17.3414 34.3141 17.4667 34.3141 17.5412 34.4648C17.6654 34.6904 17.0413 34.7403 17.0661 35.0168C17.091 35.4431 18.6146 35.0168 19.1394 35.0168C19.2139 35.0168 19.2894 35.0917 19.2894 35.1915C19.3143 35.4421 18.9396 35.6188 18.6901 35.7675C18.5649 35.8434 17.9914 36.095 17.4418 35.9442C17.416 35.9442 18.5401 36.3964 19.5886 36.3455C20.2137 36.2956 21.1619 36.044 21.9868 35.492C22.61 35.0398 23.4359 33.785 23.8344 32.7069C24.709 30.349 24.2588 28.6929 24.1594 28.2417C23.9597 26.9869 23.3604 26.0086 22.8604 25.2559C22.1866 24.3026 21.637 23.9023 21.2126 23.5509C20.6878 23.1496 19.9384 22.7223 19.364 22.5217C18.4148 22.1703 17.5154 22.0954 16.767 22.321C16.2671 22.4977 15.7671 22.7473 15.3924 23.2993C15.143 23.6267 15.0933 23.9032 15.0178 24.1788C14.8428 24.9055 15.6419 26.5866 15.5167 27.3892C15.4421 28.042 15.0178 28.7688 14.9671 28.8945C14.5427 29.746 14.4671 29.7221 14.0676 30.5996C13.843 31.0518 13.8927 30.8521 13.6929 31.4281C13.842 31.0767 14.3668 30.7513 14.8667 30.6495C15.1917 30.5996 15.6906 30.6994 15.8655 30.8002C16.0156 30.8761 16.0901 30.901 16.3406 31.1516C16.4658 31.2524 16.5155 31.3522 16.6149 31.503C16.8654 31.479 17.0403 31.5529 17.1148 31.6038C17.1894 31.6537 17.2639 31.7286 17.3146 31.8544C17.3643 31.9302 17.3891 32.1299 17.4398 32.2806C17.5144 32.056 17.4398 31.7286 17.3643 31.5798C17.3146 31.4291 17.1645 31.2285 17.09 31.1785C16.8157 31.0278 16.6398 30.8272 16.6398 30.5766C16.6398 30.3001 16.765 30.1493 16.9399 30.0485C16.9399 30.0485 16.9141 29.9736 16.8902 29.9237C16.8654 29.8738 16.8395 29.773 16.8395 29.799C16.7391 29.9736 16.4897 30.1244 16.2402 30.1743C16.0405 30.2242 15.7661 30.0236 15.4411 29.9996C15.2414 29.9736 15.0913 29.9477 14.8915 30.0236C15.0655 29.3707 15.466 28.644 16.1657 28.1159C16.6149 27.8164 16.9399 27.7156 17.4398 27.5649C17.9139 27.4391 18.1892 27.489 18.6384 27.3882C18.9128 27.3133 18.8631 27.3882 19.3123 27.1875C19.5876 27.0627 20.012 26.6854 20.2863 26.1593C19.8371 26.6854 19.2129 26.9629 18.6633 26.9869C18.1137 27.0128 17.2649 26.6355 16.7401 26.2342C16.3903 25.9327 15.6161 24.9814 15.6916 24.2766C15.7165 23.7256 16.0911 23.3243 16.3913 23.1496C16.9906 22.8221 17.5899 22.8221 18.1654 22.9729C18.2647 22.9988 18.9396 23.1735 19.5399 23.475C19.839 23.6257 20.663 24.1518 21.0128 24.5292C21.6877 25.18 22.1369 25.9327 22.3118 26.2841C22.7869 27.2374 22.8863 28.1418 22.9111 28.5441Z" fill="white"/>
<path fill-rule="evenodd" clip-rule="evenodd" d="M42.6187 10.5815C42.4438 7.2693 42.0194 4.76068 41.5205 3.75644C40.8467 2.35089 39.8717 1.57425 39.1223 1.27278C37.8233 0.770654 36.899 0.595959 35.8753 0.520091C33.2028 0.3434 30.73 0.319442 28.3318 0.142751C26.6084 0.0439233 25.5102 0.0179686 23.6616 0.0179686C22.9877 -0.00598954 21.638 -0.00598954 20.8648 0.0179686C19.8153 0.0439233 19.3402 0.0439233 18.0173 0.0439233C16.9181 0.0439233 14.9194 0.0928378 13.7457 0.0928378C12.4467 0.0928378 7.32622 0.0688797 4.95384 0.771652C4.67853 0.846521 3.85461 1.07113 3.20461 1.47243C2.58046 1.84977 2.13123 2.4018 2.05569 2.50063C1.23177 3.50588 0.807386 4.8096 0.657311 6.11432C0.35716 8.64789 0.382007 9.22489 0.332313 9.85279C0.307466 10.0275 0.231932 11.7345 0.132544 12.9634C0.0311687 14.6943 -0.0185251 17.3786 0.00632183 19.3861C0.0560156 22.7473 0.00632183 24.1269 0.0560156 25.9597C0.106703 27.0627 0.230938 27.8394 0.281625 29.5214C0.331319 30.5257 0.480401 32.08 0.656317 33.2599C0.756698 33.8618 0.955473 34.6894 1.1304 35.2155C1.20593 35.517 1.35501 35.8434 1.45539 36.069C1.75554 36.647 2.20478 37.223 2.87962 37.774C3.50377 38.3021 4.25315 38.5027 4.97769 38.7274C5.30269 38.8032 6.97637 39.1306 8.79914 39.2814C10.2234 39.3802 11.8225 39.3563 12.3214 39.3802C15.469 39.4321 18.3413 39.4321 20.839 39.4561C21.9382 39.482 26.2337 39.4321 30.1814 39.2305C34.1281 39.0298 36.6505 39.0039 38.0251 38.5776C39.3986 38.1514 39.5487 38.0515 40.2722 37.4735C40.797 37.0463 41.2969 36.3196 41.6209 35.467C42.0463 34.337 42.2709 33.0832 42.2957 32.632C42.3951 31.3273 42.5194 30.6005 42.6197 29.3198C42.6943 28.4683 42.745 27.6647 42.7698 26.8361C42.8444 24.5531 42.8444 21.9946 42.8444 19.8124C42.8444 17.3028 42.7947 13.6901 42.6197 10.5805L42.6187 10.5815ZM4.10308 6.74222C4.10308 5.73698 4.55231 4.45821 5.02738 3.78139C5.1864 3.55878 5.33548 3.3781 5.49848 3.22037C5.79465 2.93088 6.13357 2.72025 6.65038 2.47667C7.07477 2.27602 7.89869 2.1752 8.62323 2.25107C9.0983 2.30098 9.7473 2.55254 10.3218 2.90393C10.8465 3.2054 13.0191 4.88547 15.1182 6.51662C17.416 8.29751 19.5638 10.4557 19.5638 10.4557C18.5401 10.5805 15.7672 10.8311 13.7695 10.9818C11.9209 11.1076 9.94806 10.9579 7.92453 11.1326C7.52499 11.1585 6.74977 11.3831 6.15146 11.6347C5.50146 11.9361 4.95185 12.2875 4.22831 12.9883C4.15377 12.1608 4.17861 11.8852 4.15377 11.0587C4.07923 9.45249 4.10407 8.4732 4.10407 6.74322L4.10308 6.74222ZM19.1146 38.0515C17.3157 38.0276 15.318 37.9767 13.7188 37.2739C11.5711 36.3206 10.0723 34.3889 9.39745 33.0852C8.24853 30.901 7.849 29.6482 7.07477 27.2893C6.37508 25.0303 6.02523 23.8523 5.55116 21.8438C5.30169 20.6909 5.07708 19.7116 4.90116 18.5326C7.04992 18.332 8.29823 18.4318 10.2721 18.5825C11.2968 18.6584 12.2698 18.7333 13.0688 18.884C14.0438 19.0587 15.0924 19.4361 15.1927 20.7408C15.2424 21.2169 15.0675 21.9457 14.7922 22.347C15.1172 22.0964 15.8914 21.769 16.6657 21.5184C17.1149 21.3677 18.0641 21.2429 19.1881 21.4176C20.4374 21.6442 21.2365 22.0455 21.9352 22.4717C23.584 23.4251 23.8087 23.8014 24.3583 24.3535C25.207 25.207 26.7555 27.6407 26.7555 30.5516C26.7555 32.082 26.6064 34.3889 24.7071 36.2966C23.0334 38.0036 19.8113 38.0515 19.1126 38.0515H19.1146ZM39.1978 14.294C38.8728 17.2549 38.5478 19.1356 37.874 22.0465C37.4496 23.8523 36.9 26.0864 36.3752 27.466C35.8753 28.8456 35.0762 31.3293 34.1768 32.9854C32.8032 35.493 31.4039 36.1199 30.6803 36.4972C29.9061 36.8985 28.1827 37.6003 26.1343 37.6762C27.2336 35.9212 27.7335 35.2185 28.2831 33.4855C28.9072 31.4291 28.5574 29.4975 28.458 28.9694C28.1072 27.3652 27.2832 25.1321 25.86 23.476C24.0869 21.4186 22.0634 19.7635 18.5411 18.3819C16.8177 17.7051 13.7954 17.2029 12.1475 17.0782C10.1985 16.9015 9.42429 16.8256 7.7516 16.7767C6.40191 16.7507 4.95384 16.625 4.37938 16.9015C4.10407 17.0263 3.97984 17.1261 3.77907 17.4775L3.13007 16.2237C2.90546 15.7465 3.15492 15.1945 3.52961 14.9928C3.97984 14.7672 4.07922 14.6414 4.65369 14.4158C4.82861 14.3409 4.95384 14.3409 5.10391 14.3659C5.22815 14.3659 5.32853 14.4158 5.40406 14.4907C5.50345 14.5666 6.17829 15.1186 6.4526 15.3442L8.45029 13.8897L6.0789 13.8378C5.8036 13.8378 5.55414 13.9636 5.55414 13.7889C5.55414 13.5124 6.02822 13.4116 6.87798 12.9843C7.02706 12.9094 7.7029 12.5601 8.90151 12.4842C10.2512 12.3584 11.3991 12.5082 13.3978 12.4083C15.2961 12.3335 16.9201 12.033 17.094 12.033C16.9946 12.3345 16.4192 12.8615 16.0455 13.2379C15.1222 14.1653 14.4712 14.3919 13.3233 15.1196C16.6706 14.1663 18.2181 13.1381 18.9426 12.6858C19.5678 12.3345 20.7167 11.5568 21.8149 10.8041C25.3879 8.37038 27.81 6.16224 30.5829 4.02996C32.7555 2.3489 35.3794 1.52234 37.4019 3.02771C39.4254 4.53208 39.3747 7.79438 39.3996 8.09586C39.5248 10.4777 39.4244 11.9092 39.2008 14.292L39.1978 14.294Z" fill="white"/>
</svg>
