<svg width="47" height="62" viewBox="0 0 47 62" fill="none" xmlns="http://www.w3.org/2000/svg">
<path fill-rule="evenodd" clip-rule="evenodd" d="M44.6464 35.8882C44.2445 37.9645 43.9622 38.7837 43.3866 39.4908C41.8335 41.7803 39.3031 41.7803 37.3374 41.9935C28.9423 42.4649 11.6961 43.273 6.13564 41.7354C4.39799 41.3651 2.09562 40.5009 1.70464 35.2934C0.922701 27.5943 0.792382 19.2668 1.30282 11.1189C1.68293 3.36375 3.63777 1.84864 9.93676 1.33238C20.026 0.894679 25.4888 0.737556 36.8052 1.37727C41.0082 1.66907 43.4409 2.70159 44.2119 6.58477C44.9613 10.7373 45.0808 16.5845 45.2111 21.6461C45.298 26.9659 45.0808 31.6122 44.6464 35.8882ZM21.0795 12.1851C10.8599 13.4645 8.47062 11.6352 5.39715 14.946C5.07134 11.478 5.09307 9.09874 5.37544 7.46017C5.70125 5.59714 6.38544 4.67685 7.2977 4.16059C9.79558 2.95972 11.1531 3.95858 13.184 5.44002C16.2466 7.60607 20.1238 10.9169 21.0795 12.1963M6.02707 20.6473C5.9076 20.6473 8.02537 20.4004 10.3386 20.5687C13.6076 20.6473 18.1472 20.8717 16.377 24.5192C21.3075 21.7135 25.3259 25.5405 26.6834 27.2352C27.1504 27.6505 28.4754 30.1757 28.66 32.9926C28.6165 36.9207 27.2373 40.254 22.8171 40.8825C20.7645 41.062 18.9074 41.0171 17.3218 40.7702C15.2909 40.6019 13.5532 39.4908 12.1088 37.8298C11.0771 36.3708 10.1757 34.6424 9.42632 32.8243C7.54748 27.7178 6.35286 22.9704 6.01619 20.6248M19.2332 38.9633C19.8631 38.9296 20.5039 38.6266 20.7211 38.4807C21.2207 38.1553 21.0686 37.9757 20.808 37.9645C20.5907 37.942 20.1998 38.0094 19.7979 38.0879C19.407 38.144 19.0594 38.1777 18.9508 38.1104C18.549 38.1104 18.6142 37.8971 18.8205 37.7288C19.3853 37.3472 19.2115 37.0554 18.7662 37.2574C18.3535 37.3584 17.6802 37.9196 16.7353 37.7512C15.9425 37.4594 15.443 36.786 15.6276 36.1239C17.9626 37.8298 17.6693 35.0128 20.8949 35.9555C22.0569 36.2922 22.6216 36.0453 23.4796 35.2597C25.0652 33.6773 24.6742 30.2879 24.3158 29.3115C23.5556 27.4485 22.0569 26.2139 21.503 25.967C20.493 25.3722 18.5924 24.7886 17.615 25.7762C16.2032 27.1118 19.0812 30.8154 21.8614 28.8513C20.7862 30.849 18.7553 29.0534 17.0285 31.5561C16.7462 31.9265 16.4747 32.4652 16.5507 32.7345C17.5173 32.3305 17.5824 33.3069 18.5707 32.5101C17.7453 34.115 19.5156 33.5762 19.092 34.9903C19.0595 34.2945 18.5816 34.1935 18.2883 34.2384C17.5716 32.858 15.9968 33.2844 15.4104 33.9578C16.062 31.8591 17.148 31.0623 17.1046 29.738C17.1046 29.2666 16.9634 28.7728 16.8331 28.3239C16.3987 26.8312 16.5073 25.9895 17.4087 25.0692C19.092 23.8122 21.6659 24.6315 23.4036 26.1915C25.2281 27.8749 26.1838 30.0298 26.1838 32.5213C26.1187 35.3158 24.9023 38.8174 21.818 39.1878C20.7211 39.3 19.6785 39.1429 19.2332 38.9409M28.1387 40.5345C30.9081 40.4784 34.6332 39.1878 36.121 35.8994C39.0533 29.9736 40.7041 22.3195 41.258 16.0795C41.5403 13.0605 42.3114 6.50621 39.4443 4.27282C38.0541 3.18418 36.5663 3.0944 34.5354 3.9698C31.8855 5.40635 28.6708 8.7396 24.0552 12.1402C22.0677 13.5206 20.1998 14.7776 18.6793 15.6081C17.3761 16.2366 16.0946 16.7416 14.9217 17.0671C17.0177 15.6418 18.9834 14.194 18.4513 13.7788C13.8465 14.8337 9.54579 13.3523 6.81985 15.6642C6.76555 15.7428 6.77643 15.7989 6.84159 15.855C7.76472 15.8214 8.94847 15.7877 9.46977 15.855C9.63267 15.8775 9.6327 15.8999 9.49151 16.0234C8.97022 16.4723 8.1448 17.1906 7.76469 17.3252C7.63437 17.3252 7.53663 17.2579 7.42802 17.1906C7.05877 16.9773 6.73297 16.5621 6.35286 16.3825C5.99447 16.3825 5.32112 16.6519 4.64778 17.1232C4.32197 17.3814 4.18079 17.7405 4.27854 18.1445C4.37628 18.5373 4.61522 19.0648 5.03877 19.6372C5.12565 18.9414 5.87501 18.9189 6.2877 18.8628C9.16569 18.7955 12.8365 18.9301 16.4964 19.5362C22.8823 20.5575 28.1061 24.5978 29.822 29.5359C31.1578 32.9926 30.8429 36.8983 28.1495 40.5233M30.3759 10.4006C25.7277 15.5632 28.2907 17.7517 30.3324 21.9828C31.4836 24.6315 32.3851 27.5158 31.9398 31.9713C31.1035 25.7987 27.7585 20.5687 25.9883 18.2568C24.2181 15.653 23.5991 15.3949 30.3759 10.4006Z" fill="white"/>
<path fill-rule="evenodd" clip-rule="evenodd" d="M0 44.4626C0.423553 44.4963 1.04261 44.5412 1.88972 44.6085C2.72596 44.5412 3.34498 44.4963 3.76853 44.4626V60.7698C3.09519 60.6687 2.43271 60.6239 1.79195 60.6239C1.22721 60.6239 0.629899 60.6687 0 60.7698V44.4626Z" fill="white"/>
<path fill-rule="evenodd" clip-rule="evenodd" d="M5.02832 60.7811C5.48445 58.3794 5.9406 55.7307 6.39673 52.8801C6.86373 50.0182 7.28727 47.2124 7.67824 44.474C7.83029 44.4964 8.02578 44.5189 8.23213 44.5526C8.43848 44.5862 8.61222 44.6087 8.72082 44.6199C9.23126 44.5413 9.57879 44.5077 9.77428 44.474C11.0775 47.1226 13.0215 50.8375 15.6388 55.641C16.1601 54.6758 16.7032 53.7106 17.2353 52.7566C17.7675 51.7914 18.2345 50.9385 18.6363 50.209C19.0381 49.4683 19.516 48.5704 20.0916 47.493C20.6563 46.4156 21.1668 45.4167 21.6338 44.4852C21.8075 44.5077 22.1768 44.5526 22.7306 44.6311C23.0021 44.5862 23.3388 44.5526 23.7733 44.4852C23.9796 46.2585 24.1642 47.695 24.2945 48.8285C24.4249 49.9509 24.5878 51.1742 24.7507 52.476C24.9244 53.7667 25.1199 55.091 25.3154 56.4266C25.5109 57.7733 25.7281 59.2211 25.9887 60.8036C25.3045 60.7026 24.6095 60.6577 23.8927 60.6577C23.1759 60.6577 22.5026 60.7026 21.8075 60.8036C21.7641 59.9169 21.7098 59.0303 21.6338 58.0988C21.5469 57.1785 21.4817 56.3929 21.4057 55.742C21.3297 55.091 21.2211 54.1483 21.0799 52.925C20.9278 51.6792 20.8084 50.613 20.7106 49.7264C18.6472 53.5759 16.7575 57.2122 15.0524 60.6464H14.0967C13.7817 60.0179 13.2822 59.0528 12.6088 57.7733C11.9464 56.4827 11.4359 55.5175 11.0884 54.8441C10.7408 54.182 10.2956 53.3402 9.76344 52.3189C9.22042 51.3088 8.81858 50.5008 8.52535 49.9621C8.36244 51.017 8.18869 52.2628 8.02578 53.7106C7.85202 55.1584 7.71083 56.4939 7.61308 57.706C7.51534 58.9405 7.46103 59.9618 7.43931 60.7923C7.18953 60.7587 6.99405 60.7362 6.84201 60.7138C6.70082 60.7138 6.50534 60.6689 6.23383 60.6464C5.67996 60.725 5.27811 60.7699 5.02832 60.7923" fill="white"/>
<path fill-rule="evenodd" clip-rule="evenodd" d="M26.434 57.0211H26.9445C27.1508 57.7731 27.5309 58.3903 28.1065 58.8729C28.693 59.3331 29.4749 59.58 30.4741 59.6136C31.3103 59.6136 32.0054 59.3892 32.5593 58.929C33.124 58.4689 33.3955 57.8853 33.3955 57.167C33.3955 56.5049 33.1457 55.9437 32.6461 55.4611C32.1466 54.9785 31.2778 54.4959 30.0505 54.0246C29.1057 53.6317 28.3238 53.2389 27.7156 52.8012C27.1074 52.3748 26.6513 51.8585 26.3146 51.2525C25.9888 50.6464 25.8259 49.9169 25.8259 49.064C25.8259 48.211 26.0431 47.3356 26.4666 46.5724C26.8902 45.8093 27.5527 45.2032 28.4541 44.7543C29.3446 44.2942 30.4632 44.0585 31.7882 44.0585C32.5267 44.0585 33.2652 44.1707 34.0037 44.3839C34.7422 44.586 35.3286 44.8553 35.7413 45.1808C35.611 45.5511 35.4807 45.9327 35.3395 46.3368C35.1875 46.752 35.0571 47.1336 34.9159 47.5376H34.5467C34.3512 46.9765 34.0037 46.4827 33.5041 46.0898C33.0154 45.697 32.3855 45.495 31.6361 45.495C29.7573 45.495 28.8124 46.2806 28.8124 47.8519C28.8124 48.7497 29.5509 49.5353 31.0497 50.2199L32.9394 51.0953C34.3404 51.7238 35.2961 52.4533 35.8065 53.2726C36.3169 54.0919 36.5776 54.9897 36.5776 55.9549C36.545 56.7742 36.3386 57.5037 35.9694 58.1434C35.5893 58.7719 35.068 59.3218 34.4055 59.7483C33.7539 60.1972 33.0263 60.5115 32.2117 60.7247C31.4081 60.938 30.5936 61.0502 29.7464 61.0502C28.15 61.0053 26.7924 60.6686 25.6738 60.0289C26.0214 58.9851 26.2711 57.9863 26.4123 57.0211" fill="white"/>
<path fill-rule="evenodd" clip-rule="evenodd" d="M36.2298 57.0211H36.7403C36.9358 57.7731 37.3158 58.3903 37.9023 58.8729C38.4779 59.3331 39.2707 59.58 40.2807 59.6136C41.117 59.6136 41.812 59.3892 42.3659 58.929C42.9306 58.4689 43.213 57.8853 43.213 57.167C43.213 56.5049 42.9632 55.9437 42.4636 55.4611C41.9641 54.9785 41.0952 54.4959 39.868 54.0246C38.9232 53.6317 38.1521 53.2389 37.5331 52.8012C36.9357 52.3748 36.4579 51.8585 36.1321 51.2525C35.8063 50.6464 35.6542 49.9169 35.6542 49.064C35.6542 48.211 35.8714 47.3356 36.2841 46.5724C36.7077 45.8093 37.3702 45.2032 38.2607 44.7543C39.1621 44.2942 40.2699 44.0585 41.5948 44.0585C42.3333 44.0585 43.0718 44.1707 43.8103 44.3839C44.538 44.586 45.1244 44.8553 45.548 45.1808C45.4177 45.5511 45.2873 45.9327 45.1353 46.3368C44.9832 46.752 44.8529 47.1336 44.7226 47.5376H44.3425C44.1579 46.9765 43.8103 46.4827 43.3108 46.0898C42.822 45.697 42.1921 45.495 41.4428 45.495C39.5639 45.495 38.6191 46.2806 38.6191 47.8519C38.6191 48.7497 39.3684 49.5353 40.8563 50.2199L42.7352 51.0953C44.147 51.7238 45.1027 52.4533 45.6131 53.2726C46.1127 54.0919 46.3734 54.9897 46.3734 55.9549C46.3517 56.7742 46.1453 57.5037 45.7652 58.1434C45.3851 58.7719 44.8638 59.3218 44.2121 59.7483C43.5497 60.1972 42.8329 60.5115 42.0184 60.7247C41.2038 60.938 40.3893 61.0502 39.5531 61.0502C37.9566 61.0053 36.5991 60.6686 35.4805 60.0289C35.828 58.9851 36.0669 57.9863 36.219 57.0211" fill="white"/>
</svg>
